G04 PROTEUS GERBER X2 FILE*
%TF.GenerationSoftware,Labcenter,Proteus,8.11-SP0-Build30052*%
%TF.CreationDate,2023-05-22T14:03:23+00:00*%
%TF.FileFunction,Soldermask,Bot*%
%TF.FilePolarity,Negative*%
%TF.Part,Single*%
%TF.SameCoordinates,{9aae922a-4e75-4b79-837c-5e4d9500d0df}*%
%FSLAX45Y45*%
%MOMM*%
G01*
%TA.AperFunction,Material*%
%ADD23C,1.016000*%
%TA.AperFunction,Material*%
%ADD24C,3.556000*%
%AMPPAD017*
4,1,36,
-1.016000,1.143000,
1.016000,1.143000,
1.041970,1.140470,
1.065980,1.133200,
1.087580,1.121650,
1.106290,1.106290,
1.121650,1.087570,
1.133200,1.065980,
1.140470,1.041970,
1.143000,1.016000,
1.143000,-1.016000,
1.140470,-1.041970,
1.133200,-1.065980,
1.121650,-1.087570,
1.106290,-1.106290,
1.087580,-1.121650,
1.065980,-1.133200,
1.041970,-1.140470,
1.016000,-1.143000,
-1.016000,-1.143000,
-1.041970,-1.140470,
-1.065980,-1.133200,
-1.087580,-1.121650,
-1.106290,-1.106290,
-1.121650,-1.087570,
-1.133200,-1.065980,
-1.140470,-1.041970,
-1.143000,-1.016000,
-1.143000,1.016000,
-1.140470,1.041970,
-1.133200,1.065980,
-1.121650,1.087570,
-1.106290,1.106290,
-1.087580,1.121650,
-1.065980,1.133200,
-1.041970,1.140470,
-1.016000,1.143000,
0*%
%TA.AperFunction,Material*%
%ADD25PPAD017*%
%TA.AperFunction,Material*%
%ADD26C,1.651000*%
%TA.AperFunction,Material*%
%ADD27C,2.032000*%
%AMPPAD020*
4,1,36,
-0.762000,-0.635000,
-0.762000,0.635000,
-0.759470,0.660970,
-0.752200,0.684980,
-0.740650,0.706580,
-0.725290,0.725290,
-0.706570,0.740650,
-0.684980,0.752200,
-0.660970,0.759470,
-0.635000,0.762000,
0.635000,0.762000,
0.660970,0.759470,
0.684980,0.752200,
0.706570,0.740650,
0.725290,0.725290,
0.740650,0.706580,
0.752200,0.684980,
0.759470,0.660970,
0.762000,0.635000,
0.762000,-0.635000,
0.759470,-0.660970,
0.752200,-0.684980,
0.740650,-0.706580,
0.725290,-0.725290,
0.706570,-0.740650,
0.684980,-0.752200,
0.660970,-0.759470,
0.635000,-0.762000,
-0.635000,-0.762000,
-0.660970,-0.759470,
-0.684980,-0.752200,
-0.706570,-0.740650,
-0.725290,-0.725290,
-0.740650,-0.706580,
-0.752200,-0.684980,
-0.759470,-0.660970,
-0.762000,-0.635000,
0*%
%TA.AperFunction,Material*%
%ADD28PPAD020*%
%ADD29C,1.524000*%
%AMPPAD022*
4,1,36,
-0.635000,0.762000,
0.635000,0.762000,
0.660970,0.759470,
0.684980,0.752200,
0.706580,0.740650,
0.725290,0.725290,
0.740650,0.706570,
0.752200,0.684980,
0.759470,0.660970,
0.762000,0.635000,
0.762000,-0.635000,
0.759470,-0.660970,
0.752200,-0.684980,
0.740650,-0.706570,
0.725290,-0.725290,
0.706580,-0.740650,
0.684980,-0.752200,
0.660970,-0.759470,
0.635000,-0.762000,
-0.635000,-0.762000,
-0.660970,-0.759470,
-0.684980,-0.752200,
-0.706580,-0.740650,
-0.725290,-0.725290,
-0.740650,-0.706570,
-0.752200,-0.684980,
-0.759470,-0.660970,
-0.762000,-0.635000,
-0.762000,0.635000,
-0.759470,0.660970,
-0.752200,0.684980,
-0.740650,0.706570,
-0.725290,0.725290,
-0.706580,0.740650,
-0.684980,0.752200,
-0.660970,0.759470,
-0.635000,0.762000,
0*%
%TA.AperFunction,Material*%
%ADD72PPAD022*%
%TA.AperFunction,Material*%
%ADD73C,1.778000*%
%ADD30C,2.286000*%
%TA.AperFunction,Profile*%
%ADD70C,0.203200*%
%TD.AperFunction*%
D23*
X-6000000Y+6087315D03*
D24*
X-14750000Y+7603760D03*
X-14750000Y+7207520D03*
D25*
X-14754000Y+12000000D03*
X-14500000Y+12000000D03*
X-14246000Y+12000000D03*
D26*
X-13750000Y+10150000D03*
X-13550000Y+10150000D03*
X-13750000Y+9950000D03*
X-13550000Y+9950000D03*
X-13750000Y+9750000D03*
X-13550000Y+9750000D03*
X-13750000Y+9550000D03*
X-13550000Y+9550000D03*
D27*
X-13500000Y+11750000D03*
X-13500000Y+10734000D03*
X-13250000Y+11734000D03*
X-13250000Y+10718000D03*
X-13000000Y+11750000D03*
X-13000000Y+10734000D03*
X-12750000Y+11750000D03*
X-12750000Y+10734000D03*
D28*
X-8250000Y+9000000D03*
D29*
X-8250000Y+9254000D03*
X-8250000Y+9508000D03*
X-8250000Y+9762000D03*
X-8250000Y+10016000D03*
X-8250000Y+10270000D03*
X-8250000Y+10524000D03*
X-8250000Y+10778000D03*
X-9012000Y+10778000D03*
X-9012000Y+10524000D03*
X-9012000Y+10270000D03*
X-9012000Y+10016000D03*
X-9012000Y+9762000D03*
X-9012000Y+9508000D03*
X-9012000Y+9254000D03*
X-9012000Y+9000000D03*
D26*
X-7000000Y+9900000D03*
X-7000000Y+9700000D03*
X-7000000Y+9500000D03*
X-7000000Y+9300000D03*
D28*
X-5500000Y+10750000D03*
D29*
X-5500000Y+10496000D03*
X-5500000Y+10242000D03*
X-5500000Y+9988000D03*
X-5500000Y+9734000D03*
X-5500000Y+9480000D03*
X-5500000Y+9226000D03*
X-5500000Y+8972000D03*
X-4738000Y+8972000D03*
X-4738000Y+9226000D03*
X-4738000Y+9480000D03*
X-4738000Y+9734000D03*
X-4738000Y+9988000D03*
X-4738000Y+10242000D03*
X-4738000Y+10496000D03*
X-4738000Y+10750000D03*
D26*
X-6450000Y+9500000D03*
X-6250000Y+9500000D03*
X-6050000Y+9500000D03*
X-5850000Y+9500000D03*
D72*
X-10000000Y+6750000D03*
D29*
X-9746000Y+6750000D03*
X-9492000Y+6750000D03*
X-9238000Y+6750000D03*
X-8984000Y+6750000D03*
X-8730000Y+6750000D03*
X-8476000Y+6750000D03*
X-8476000Y+7512000D03*
X-8730000Y+7512000D03*
X-8984000Y+7512000D03*
X-9238000Y+7512000D03*
X-9492000Y+7512000D03*
X-9746000Y+7512000D03*
X-10000000Y+7512000D03*
D28*
X-11500000Y+11000000D03*
D29*
X-11500000Y+10746000D03*
X-11500000Y+10492000D03*
X-11500000Y+10238000D03*
X-11500000Y+9984000D03*
X-11500000Y+9730000D03*
X-11500000Y+9476000D03*
X-11500000Y+9222000D03*
X-10738000Y+9222000D03*
X-10738000Y+9476000D03*
X-10738000Y+9730000D03*
X-10738000Y+9984000D03*
X-10738000Y+10238000D03*
X-10738000Y+10492000D03*
X-10738000Y+10746000D03*
X-10738000Y+11000000D03*
D24*
X-1250000Y+12000000D03*
X-1250000Y+11603760D03*
X-1250000Y+11207520D03*
X-1250000Y+10811280D03*
X-1250000Y+10415040D03*
X-1250000Y+10018800D03*
X-1250000Y+9622560D03*
X-1250000Y+9226320D03*
D27*
X-3250000Y+12500000D03*
X-2234000Y+12500000D03*
D72*
X-6750000Y+6750000D03*
D29*
X-6496000Y+6750000D03*
X-6242000Y+6750000D03*
X-5988000Y+6750000D03*
X-5988000Y+7512000D03*
X-6242000Y+7512000D03*
X-6496000Y+7512000D03*
X-6750000Y+7512000D03*
D27*
X-5500000Y+7250000D03*
X-5500000Y+6550000D03*
D73*
X-5650000Y+7500000D03*
X-5300000Y+7500000D03*
X-8500000Y+5500000D03*
X-8150000Y+5500000D03*
D30*
X-5500000Y+5500000D03*
X-5246000Y+5500000D03*
D27*
X-10750000Y+8750000D03*
X-10750000Y+7734000D03*
D30*
X-2488000Y+6746000D03*
X-3758000Y+6746000D03*
X-3250000Y+7000000D03*
D24*
X-6500000Y+5500000D03*
X-6103760Y+5500000D03*
X-12500000Y+7750000D03*
X-12103760Y+7750000D03*
D26*
X-10450000Y+10500000D03*
X-10250000Y+10500000D03*
X-10050000Y+10500000D03*
X-9850000Y+10500000D03*
X-9200000Y+6250000D03*
X-9000000Y+6250000D03*
X-8800000Y+6250000D03*
X-8600000Y+6250000D03*
D24*
X-10646240Y+6500000D03*
X-10250000Y+6500000D03*
D26*
X-7750000Y+7500000D03*
X-12000000Y+10500000D03*
D24*
X-9896240Y+10000000D03*
X-9500000Y+10000000D03*
X-11646240Y+8750000D03*
X-11250000Y+8750000D03*
X-10146240Y+9500000D03*
X-9750000Y+9500000D03*
X-10146240Y+8500000D03*
X-9750000Y+8500000D03*
D26*
X-12500000Y+7000000D03*
X-10250000Y+7500000D03*
X-10500000Y+9250000D03*
X-8250000Y+8500000D03*
X-4250000Y+12500000D03*
X-7750000Y+10000000D03*
D70*
X-15250000Y+4500000D02*
X+500000Y+4500000D01*
X+500000Y+13250000D01*
X-15250000Y+13250000D01*
X-15250000Y+4500000D01*
M02*
