G04 PROTEUS GERBER X2 FILE*
%TF.GenerationSoftware,Labcenter,Proteus,8.11-SP0-Build30052*%
%TF.CreationDate,2023-05-22T14:03:23+00:00*%
%TF.FileFunction,Legend,Top*%
%TF.FilePolarity,Positive*%
%TF.Part,Single*%
%TF.SameCoordinates,{9aae922a-4e75-4b79-837c-5e4d9500d0df}*%
%FSLAX45Y45*%
%MOMM*%
G01*
%TA.AperFunction,Profile*%
%ADD70C,0.203200*%
%TA.AperFunction,Material*%
%ADD71C,0.203200*%
%ADD20C,0.508000*%
%ADD21C,0.152400*%
%TD.AperFunction*%
D70*
X-15250000Y+4500000D02*
X+500000Y+4500000D01*
X+500000Y+13250000D01*
X-15250000Y+13250000D01*
X-15250000Y+4500000D01*
D71*
X-15037020Y+6956060D02*
X-14275020Y+6956060D01*
X-14275020Y+7845060D01*
X-15037020Y+7845060D01*
X-15037020Y+6956060D01*
X-14402020Y+7845060D02*
X-14402020Y+6956060D01*
X-14188660Y+6971935D02*
X-14188660Y+7051310D01*
X-14234380Y+7210060D02*
X-14188660Y+7210060D01*
X-14142940Y+7257685D01*
X-14188660Y+7305310D01*
X-14234380Y+7305310D01*
X-14158180Y+7432310D02*
X-14142940Y+7416435D01*
X-14142940Y+7368810D01*
X-14173420Y+7337060D01*
X-14203900Y+7337060D01*
X-14234380Y+7368810D01*
X-14234380Y+7416435D01*
X-14219140Y+7432310D01*
X-14158180Y+7559310D02*
X-14142940Y+7543435D01*
X-14142940Y+7495810D01*
X-14173420Y+7464060D01*
X-14203900Y+7464060D01*
X-14234380Y+7495810D01*
X-14234380Y+7543435D01*
X-14219140Y+7559310D01*
X-14188660Y+7718060D02*
X-14188660Y+7813310D01*
X-14219140Y+7765685D02*
X-14158180Y+7765685D01*
X-14881000Y+11873000D02*
X-14119000Y+11873000D01*
X-14119000Y+12127000D01*
X-14881000Y+12127000D01*
X-14881000Y+11873000D01*
X-14881000Y+12127000D02*
X-14881000Y+12254000D01*
X-14119000Y+12254000D01*
X-14119000Y+12127000D01*
X-14881000Y+12127000D02*
X-14754000Y+12254000D01*
X-14754000Y+12127000D02*
X-14627000Y+12254000D01*
X-14627000Y+12127000D02*
X-14500000Y+12254000D01*
X-14500000Y+12127000D02*
X-14373000Y+12254000D01*
X-14373000Y+12127000D02*
X-14246000Y+12254000D01*
X-14246000Y+12127000D02*
X-14119000Y+12254000D01*
X-14627000Y+12386080D02*
X-14627000Y+12309880D01*
X-14611125Y+12294640D01*
X-14547625Y+12294640D01*
X-14531750Y+12309880D01*
X-14531750Y+12386080D01*
X-14468250Y+12355600D02*
X-14436500Y+12386080D01*
X-14436500Y+12294640D01*
D20*
X-13902400Y+10150000D02*
X-13902531Y+10153158D01*
X-13903597Y+10159476D01*
X-13905828Y+10165794D01*
X-13909473Y+10172112D01*
X-13915048Y+10178351D01*
X-13921366Y+10182947D01*
X-13927684Y+10185880D01*
X-13934002Y+10187542D01*
X-13940320Y+10188100D01*
X-13940500Y+10188100D01*
X-13978600Y+10150000D02*
X-13978469Y+10153158D01*
X-13977403Y+10159476D01*
X-13975172Y+10165794D01*
X-13971527Y+10172112D01*
X-13965952Y+10178351D01*
X-13959634Y+10182947D01*
X-13953316Y+10185880D01*
X-13946998Y+10187542D01*
X-13940680Y+10188100D01*
X-13940500Y+10188100D01*
X-13978600Y+10150000D02*
X-13978469Y+10146842D01*
X-13977403Y+10140524D01*
X-13975172Y+10134206D01*
X-13971527Y+10127888D01*
X-13965952Y+10121649D01*
X-13959634Y+10117053D01*
X-13953316Y+10114120D01*
X-13946998Y+10112458D01*
X-13940680Y+10111900D01*
X-13940500Y+10111900D01*
X-13902400Y+10150000D02*
X-13902531Y+10146842D01*
X-13903597Y+10140524D01*
X-13905828Y+10134206D01*
X-13909473Y+10127888D01*
X-13915048Y+10121649D01*
X-13921366Y+10117053D01*
X-13927684Y+10114120D01*
X-13934002Y+10112458D01*
X-13940320Y+10111900D01*
X-13940500Y+10111900D01*
D21*
X-13850660Y+10299580D02*
X-13850660Y+10172408D01*
X-13850660Y+9400420D02*
X-13451880Y+9400420D01*
X-13451880Y+9518266D01*
X-13451880Y+10299580D02*
X-13850660Y+10299580D01*
X-13451880Y+9581734D02*
X-13451880Y+9718266D01*
X-13850660Y+9527592D02*
X-13850660Y+9400420D01*
X-13451880Y+9781734D02*
X-13451880Y+9918266D01*
X-13850660Y+9727592D02*
X-13850660Y+9572408D01*
X-13451880Y+9981734D02*
X-13451880Y+10118266D01*
X-13850660Y+9927592D02*
X-13850660Y+9772408D01*
X-13451880Y+10181734D02*
X-13451880Y+10299580D01*
X-13850660Y+10127592D02*
X-13850660Y+9972408D01*
D71*
X-13352820Y+9723000D02*
X-13337580Y+9723000D01*
X-13322340Y+9738875D01*
X-13322340Y+9802375D01*
X-13337580Y+9818250D01*
X-13413780Y+9818250D01*
X-13398540Y+9865875D02*
X-13413780Y+9881750D01*
X-13413780Y+9929375D01*
X-13398540Y+9945250D01*
X-13383300Y+9945250D01*
X-13368060Y+9929375D01*
X-13352820Y+9945250D01*
X-13337580Y+9945250D01*
X-13322340Y+9929375D01*
X-13322340Y+9881750D01*
X-13337580Y+9865875D01*
X-13368060Y+9897625D02*
X-13368060Y+9929375D01*
X-13500000Y+11623000D02*
X-13500000Y+11496000D01*
X-13563500Y+10988000D02*
X-13436500Y+10988000D01*
X-13436500Y+11496000D01*
X-13563500Y+11496000D01*
X-13563500Y+10988000D01*
X-13500000Y+10988000D02*
X-13500000Y+10861000D01*
X-13304420Y+11115000D02*
X-13395860Y+11115000D01*
X-13395860Y+11194375D01*
X-13380620Y+11210250D01*
X-13365380Y+11210250D01*
X-13350140Y+11194375D01*
X-13350140Y+11115000D01*
X-13350140Y+11194375D02*
X-13334900Y+11210250D01*
X-13304420Y+11210250D01*
X-13365380Y+11273750D02*
X-13395860Y+11305500D01*
X-13304420Y+11305500D01*
X-13250000Y+11607000D02*
X-13250000Y+11480000D01*
X-13313500Y+10972000D02*
X-13186500Y+10972000D01*
X-13186500Y+11480000D01*
X-13313500Y+11480000D01*
X-13313500Y+10972000D01*
X-13250000Y+10972000D02*
X-13250000Y+10845000D01*
X-13054420Y+11099000D02*
X-13145860Y+11099000D01*
X-13145860Y+11178375D01*
X-13130620Y+11194250D01*
X-13115380Y+11194250D01*
X-13100140Y+11178375D01*
X-13100140Y+11099000D01*
X-13100140Y+11178375D02*
X-13084900Y+11194250D01*
X-13054420Y+11194250D01*
X-13130620Y+11241875D02*
X-13145860Y+11257750D01*
X-13145860Y+11305375D01*
X-13130620Y+11321250D01*
X-13115380Y+11321250D01*
X-13100140Y+11305375D01*
X-13100140Y+11257750D01*
X-13084900Y+11241875D01*
X-13054420Y+11241875D01*
X-13054420Y+11321250D01*
X-13000000Y+11623000D02*
X-13000000Y+11496000D01*
X-13063500Y+10988000D02*
X-12936500Y+10988000D01*
X-12936500Y+11496000D01*
X-13063500Y+11496000D01*
X-13063500Y+10988000D01*
X-13000000Y+10988000D02*
X-13000000Y+10861000D01*
X-12804420Y+11115000D02*
X-12895860Y+11115000D01*
X-12895860Y+11194375D01*
X-12880620Y+11210250D01*
X-12865380Y+11210250D01*
X-12850140Y+11194375D01*
X-12850140Y+11115000D01*
X-12850140Y+11194375D02*
X-12834900Y+11210250D01*
X-12804420Y+11210250D01*
X-12880620Y+11257875D02*
X-12895860Y+11273750D01*
X-12895860Y+11321375D01*
X-12880620Y+11337250D01*
X-12865380Y+11337250D01*
X-12850140Y+11321375D01*
X-12834900Y+11337250D01*
X-12819660Y+11337250D01*
X-12804420Y+11321375D01*
X-12804420Y+11273750D01*
X-12819660Y+11257875D01*
X-12850140Y+11289625D02*
X-12850140Y+11321375D01*
X-12750000Y+11623000D02*
X-12750000Y+11496000D01*
X-12813500Y+10988000D02*
X-12686500Y+10988000D01*
X-12686500Y+11496000D01*
X-12813500Y+11496000D01*
X-12813500Y+10988000D01*
X-12750000Y+10988000D02*
X-12750000Y+10861000D01*
X-12554420Y+11115000D02*
X-12645860Y+11115000D01*
X-12645860Y+11194375D01*
X-12630620Y+11210250D01*
X-12615380Y+11210250D01*
X-12600140Y+11194375D01*
X-12600140Y+11115000D01*
X-12600140Y+11194375D02*
X-12584900Y+11210250D01*
X-12554420Y+11210250D01*
X-12584900Y+11337250D02*
X-12584900Y+11242000D01*
X-12645860Y+11305500D01*
X-12554420Y+11305500D01*
X-8377000Y+8873000D02*
X-8504000Y+8873000D01*
X-8631000Y+9000000D02*
X-8656876Y+8997564D01*
X-8680848Y+8990515D01*
X-8702438Y+8979238D01*
X-8721170Y+8964122D01*
X-8736569Y+8945554D01*
X-8748158Y+8923919D01*
X-8755460Y+8899606D01*
X-8758000Y+8873000D01*
X-8631000Y+9000000D02*
X-8604394Y+8997564D01*
X-8580081Y+8990515D01*
X-8558446Y+8979238D01*
X-8539878Y+8964122D01*
X-8524762Y+8945554D01*
X-8513485Y+8923919D01*
X-8506436Y+8899606D01*
X-8504000Y+8873000D01*
X-8758000Y+8873000D02*
X-8885000Y+8873000D01*
X-8377000Y+10905000D02*
X-8885000Y+10905000D01*
X-8377000Y+8873000D02*
X-8377000Y+10905000D01*
X-8885000Y+10905000D02*
X-8885000Y+8873000D01*
X-8758000Y+8832360D02*
X-8758000Y+8756160D01*
X-8742125Y+8740920D01*
X-8678625Y+8740920D01*
X-8662750Y+8756160D01*
X-8662750Y+8832360D01*
X-8615125Y+8817120D02*
X-8599250Y+8832360D01*
X-8551625Y+8832360D01*
X-8535750Y+8817120D01*
X-8535750Y+8801880D01*
X-8551625Y+8786640D01*
X-8535750Y+8771400D01*
X-8535750Y+8756160D01*
X-8551625Y+8740920D01*
X-8599250Y+8740920D01*
X-8615125Y+8756160D01*
X-8583375Y+8786640D02*
X-8551625Y+8786640D01*
D20*
X-7152400Y+9900000D02*
X-7152531Y+9903158D01*
X-7153597Y+9909476D01*
X-7155828Y+9915794D01*
X-7159473Y+9922112D01*
X-7165048Y+9928351D01*
X-7171366Y+9932947D01*
X-7177684Y+9935880D01*
X-7184002Y+9937542D01*
X-7190320Y+9938100D01*
X-7190500Y+9938100D01*
X-7228600Y+9900000D02*
X-7228469Y+9903158D01*
X-7227403Y+9909476D01*
X-7225172Y+9915794D01*
X-7221527Y+9922112D01*
X-7215952Y+9928351D01*
X-7209634Y+9932947D01*
X-7203316Y+9935880D01*
X-7196998Y+9937542D01*
X-7190680Y+9938100D01*
X-7190500Y+9938100D01*
X-7228600Y+9900000D02*
X-7228469Y+9896842D01*
X-7227403Y+9890524D01*
X-7225172Y+9884206D01*
X-7221527Y+9877888D01*
X-7215952Y+9871649D01*
X-7209634Y+9867053D01*
X-7203316Y+9864120D01*
X-7196998Y+9862458D01*
X-7190680Y+9861900D01*
X-7190500Y+9861900D01*
X-7152400Y+9900000D02*
X-7152531Y+9896842D01*
X-7153597Y+9890524D01*
X-7155828Y+9884206D01*
X-7159473Y+9877888D01*
X-7165048Y+9871649D01*
X-7171366Y+9867053D01*
X-7177684Y+9864120D01*
X-7184002Y+9862458D01*
X-7190320Y+9861900D01*
X-7190500Y+9861900D01*
D21*
X-7100660Y+10049580D02*
X-7100660Y+9922407D01*
X-7100660Y+9150420D02*
X-6900000Y+9150420D01*
X-6900000Y+9274809D01*
X-6900000Y+10049580D02*
X-7100660Y+10049580D01*
X-7100660Y+9277593D02*
X-7100660Y+9150420D01*
X-6900000Y+9325191D02*
X-6900000Y+9474809D01*
X-7100660Y+9477593D02*
X-7100660Y+9322407D01*
X-6900000Y+9525191D02*
X-6900000Y+9674809D01*
X-7100660Y+9677593D02*
X-7100660Y+9522407D01*
X-6900000Y+9725191D02*
X-6900000Y+9874809D01*
X-6900000Y+9925191D02*
X-6900000Y+10049580D01*
X-7100660Y+9877593D02*
X-7100660Y+9722407D01*
D71*
X-6800940Y+9473000D02*
X-6785700Y+9473000D01*
X-6770460Y+9488875D01*
X-6770460Y+9552375D01*
X-6785700Y+9568250D01*
X-6861900Y+9568250D01*
X-6831420Y+9631750D02*
X-6861900Y+9663500D01*
X-6770460Y+9663500D01*
X-5373000Y+10877000D02*
X-5246000Y+10877000D01*
X-5119000Y+10750000D02*
X-5093124Y+10752436D01*
X-5069152Y+10759485D01*
X-5047562Y+10770762D01*
X-5028830Y+10785878D01*
X-5013431Y+10804446D01*
X-5001842Y+10826081D01*
X-4994540Y+10850394D01*
X-4992000Y+10877000D01*
X-5119000Y+10750000D02*
X-5145606Y+10752436D01*
X-5169919Y+10759485D01*
X-5191554Y+10770762D01*
X-5210122Y+10785878D01*
X-5225238Y+10804446D01*
X-5236515Y+10826081D01*
X-5243564Y+10850394D01*
X-5246000Y+10877000D01*
X-4992000Y+10877000D02*
X-4865000Y+10877000D01*
X-5373000Y+8845000D02*
X-4865000Y+8845000D01*
X-5373000Y+10877000D02*
X-5373000Y+8845000D01*
X-4865000Y+8845000D02*
X-4865000Y+10877000D01*
X-5246000Y+11009080D02*
X-5246000Y+10932880D01*
X-5230125Y+10917640D01*
X-5166625Y+10917640D01*
X-5150750Y+10932880D01*
X-5150750Y+11009080D01*
X-5023750Y+11009080D02*
X-5103125Y+11009080D01*
X-5103125Y+10978600D01*
X-5039625Y+10978600D01*
X-5023750Y+10963360D01*
X-5023750Y+10932880D01*
X-5039625Y+10917640D01*
X-5087250Y+10917640D01*
X-5103125Y+10932880D01*
D20*
X-6411900Y+9309500D02*
X-6412031Y+9312658D01*
X-6413097Y+9318976D01*
X-6415328Y+9325294D01*
X-6418973Y+9331612D01*
X-6424548Y+9337851D01*
X-6430866Y+9342447D01*
X-6437184Y+9345380D01*
X-6443502Y+9347042D01*
X-6449820Y+9347600D01*
X-6450000Y+9347600D01*
X-6488100Y+9309500D02*
X-6487969Y+9312658D01*
X-6486903Y+9318976D01*
X-6484672Y+9325294D01*
X-6481027Y+9331612D01*
X-6475452Y+9337851D01*
X-6469134Y+9342447D01*
X-6462816Y+9345380D01*
X-6456498Y+9347042D01*
X-6450180Y+9347600D01*
X-6450000Y+9347600D01*
X-6488100Y+9309500D02*
X-6487969Y+9306342D01*
X-6486903Y+9300024D01*
X-6484672Y+9293706D01*
X-6481027Y+9287388D01*
X-6475452Y+9281149D01*
X-6469134Y+9276553D01*
X-6462816Y+9273620D01*
X-6456498Y+9271958D01*
X-6450180Y+9271400D01*
X-6450000Y+9271400D01*
X-6411900Y+9309500D02*
X-6412031Y+9306342D01*
X-6413097Y+9300024D01*
X-6415328Y+9293706D01*
X-6418973Y+9287388D01*
X-6424548Y+9281149D01*
X-6430866Y+9276553D01*
X-6437184Y+9273620D01*
X-6443502Y+9271958D01*
X-6449820Y+9271400D01*
X-6450000Y+9271400D01*
D21*
X-6599580Y+9399340D02*
X-6472407Y+9399340D01*
X-5700420Y+9399340D02*
X-5700420Y+9600000D01*
X-5824809Y+9600000D01*
X-6599580Y+9600000D02*
X-6599580Y+9399340D01*
X-5827593Y+9399340D02*
X-5700420Y+9399340D01*
X-5875191Y+9600000D02*
X-6024809Y+9600000D01*
X-6027593Y+9399340D02*
X-5872407Y+9399340D01*
X-6075191Y+9600000D02*
X-6224809Y+9600000D01*
X-6227593Y+9399340D02*
X-6072407Y+9399340D01*
X-6275191Y+9600000D02*
X-6424809Y+9600000D01*
X-6475191Y+9600000D02*
X-6599580Y+9600000D01*
X-6427593Y+9399340D02*
X-6272407Y+9399340D01*
D71*
X-6277000Y+9668580D02*
X-6277000Y+9653340D01*
X-6261125Y+9638100D01*
X-6197625Y+9638100D01*
X-6181750Y+9653340D01*
X-6181750Y+9729540D01*
X-6134125Y+9714300D02*
X-6118250Y+9729540D01*
X-6070625Y+9729540D01*
X-6054750Y+9714300D01*
X-6054750Y+9699060D01*
X-6070625Y+9683820D01*
X-6118250Y+9683820D01*
X-6134125Y+9668580D01*
X-6134125Y+9638100D01*
X-6054750Y+9638100D01*
X-10127000Y+7258000D02*
X-10127000Y+7385000D01*
X-10127000Y+6877000D02*
X-10127000Y+7004000D01*
X-10000000Y+7131000D02*
X-10002436Y+7156876D01*
X-10009485Y+7180848D01*
X-10020762Y+7202438D01*
X-10035878Y+7221170D01*
X-10054446Y+7236569D01*
X-10076081Y+7248158D01*
X-10100394Y+7255460D01*
X-10127000Y+7258000D01*
X-10000000Y+7131000D02*
X-10002436Y+7104394D01*
X-10009485Y+7080081D01*
X-10020762Y+7058446D01*
X-10035878Y+7039878D01*
X-10054446Y+7024762D01*
X-10076081Y+7013485D01*
X-10100394Y+7006436D01*
X-10127000Y+7004000D01*
X-10127000Y+6877000D02*
X-8349000Y+6877000D01*
X-8349000Y+7385000D01*
X-10127000Y+7385000D01*
X-10259080Y+7004000D02*
X-10182880Y+7004000D01*
X-10167640Y+7019875D01*
X-10167640Y+7083375D01*
X-10182880Y+7099250D01*
X-10259080Y+7099250D01*
X-10243840Y+7226250D02*
X-10259080Y+7210375D01*
X-10259080Y+7162750D01*
X-10243840Y+7146875D01*
X-10182880Y+7146875D01*
X-10167640Y+7162750D01*
X-10167640Y+7210375D01*
X-10182880Y+7226250D01*
X-10198120Y+7226250D01*
X-10213360Y+7210375D01*
X-10213360Y+7146875D01*
X-11373000Y+11127000D02*
X-11246000Y+11127000D01*
X-11119000Y+11000000D02*
X-11093124Y+11002436D01*
X-11069152Y+11009485D01*
X-11047562Y+11020762D01*
X-11028830Y+11035878D01*
X-11013431Y+11054446D01*
X-11001842Y+11076081D01*
X-10994540Y+11100394D01*
X-10992000Y+11127000D01*
X-11119000Y+11000000D02*
X-11145606Y+11002436D01*
X-11169919Y+11009485D01*
X-11191554Y+11020762D01*
X-11210122Y+11035878D01*
X-11225238Y+11054446D01*
X-11236515Y+11076081D01*
X-11243564Y+11100394D01*
X-11246000Y+11127000D01*
X-10992000Y+11127000D02*
X-10865000Y+11127000D01*
X-11373000Y+9095000D02*
X-10865000Y+9095000D01*
X-11373000Y+11127000D02*
X-11373000Y+9095000D01*
X-10865000Y+9095000D02*
X-10865000Y+11127000D01*
X-11246000Y+11259080D02*
X-11246000Y+11182880D01*
X-11230125Y+11167640D01*
X-11166625Y+11167640D01*
X-11150750Y+11182880D01*
X-11150750Y+11259080D01*
X-11023750Y+11198120D02*
X-11119000Y+11198120D01*
X-11055500Y+11259080D01*
X-11055500Y+11167640D01*
X-1537020Y+8939300D02*
X-775020Y+8939300D01*
X-775020Y+12241300D01*
X-1537020Y+12241300D01*
X-1537020Y+8939300D01*
X-902020Y+12241300D02*
X-902020Y+8939300D01*
X-673420Y+10463300D02*
X-658180Y+10463300D01*
X-642940Y+10479175D01*
X-642940Y+10542675D01*
X-658180Y+10558550D01*
X-734380Y+10558550D01*
X-673420Y+10685550D02*
X-673420Y+10590300D01*
X-734380Y+10653800D01*
X-642940Y+10653800D01*
X-3123000Y+12500000D02*
X-2996000Y+12500000D01*
X-2996000Y+12436500D02*
X-2488000Y+12436500D01*
X-2488000Y+12563500D01*
X-2996000Y+12563500D01*
X-2996000Y+12436500D01*
X-2488000Y+12500000D02*
X-2361000Y+12500000D01*
X-2869000Y+12604140D02*
X-2869000Y+12695580D01*
X-2789625Y+12695580D01*
X-2773750Y+12680340D01*
X-2773750Y+12665100D01*
X-2789625Y+12649860D01*
X-2869000Y+12649860D01*
X-2789625Y+12649860D02*
X-2773750Y+12634620D01*
X-2773750Y+12604140D01*
X-2646750Y+12680340D02*
X-2662625Y+12695580D01*
X-2710250Y+12695580D01*
X-2726125Y+12680340D01*
X-2726125Y+12619380D01*
X-2710250Y+12604140D01*
X-2662625Y+12604140D01*
X-2646750Y+12619380D01*
X-2646750Y+12634620D01*
X-2662625Y+12649860D01*
X-2726125Y+12649860D01*
X-6877000Y+7258000D02*
X-6877000Y+7385000D01*
X-5861000Y+7385000D01*
X-5861000Y+6877000D01*
X-6877000Y+6877000D01*
X-6877000Y+7004000D01*
X-6750000Y+7131000D02*
X-6752436Y+7156876D01*
X-6759485Y+7180848D01*
X-6770762Y+7202438D01*
X-6785878Y+7221170D01*
X-6804446Y+7236569D01*
X-6826081Y+7248158D01*
X-6850394Y+7255460D01*
X-6877000Y+7258000D01*
X-6750000Y+7131000D02*
X-6752436Y+7104394D01*
X-6759485Y+7080081D01*
X-6770762Y+7058446D01*
X-6785878Y+7039878D01*
X-6804446Y+7024762D01*
X-6826081Y+7013485D01*
X-6850394Y+7006436D01*
X-6877000Y+7004000D01*
X-7009080Y+7004000D02*
X-6932880Y+7004000D01*
X-6917640Y+7019875D01*
X-6917640Y+7083375D01*
X-6932880Y+7099250D01*
X-7009080Y+7099250D01*
X-7009080Y+7146875D02*
X-7009080Y+7226250D01*
X-6993840Y+7226250D01*
X-6917640Y+7146875D01*
X-5500000Y+7350000D02*
X-5479553Y+7345630D01*
X-5460644Y+7331445D01*
X-5443640Y+7305835D01*
X-5428906Y+7267188D01*
X-5416809Y+7213892D01*
X-5407715Y+7144336D01*
X-5401990Y+7056909D01*
X-5400000Y+6950000D01*
X-5500000Y+7350000D02*
X-5520447Y+7345630D01*
X-5539356Y+7331445D01*
X-5556360Y+7305835D01*
X-5571094Y+7267188D01*
X-5583191Y+7213892D01*
X-5592285Y+7144336D01*
X-5598010Y+7056909D01*
X-5600000Y+6950000D01*
X-5500000Y+6450000D02*
X-5479553Y+6454272D01*
X-5460644Y+6467773D01*
X-5443640Y+6491528D01*
X-5428906Y+6526562D01*
X-5416809Y+6573901D01*
X-5407715Y+6634570D01*
X-5401990Y+6709595D01*
X-5400000Y+6800000D01*
X-5500000Y+6450000D02*
X-5520447Y+6454272D01*
X-5539356Y+6467773D01*
X-5556360Y+6491528D01*
X-5571094Y+6526562D01*
X-5583191Y+6573901D01*
X-5592285Y+6634570D01*
X-5598010Y+6709595D01*
X-5600000Y+6800000D01*
X-5400000Y+6950000D02*
X-5400000Y+6800000D01*
X-5600000Y+6950000D02*
X-5600000Y+6800000D01*
X-5283160Y+6868250D02*
X-5267920Y+6852375D01*
X-5267920Y+6804750D01*
X-5298400Y+6773000D01*
X-5328880Y+6773000D01*
X-5359360Y+6804750D01*
X-5359360Y+6852375D01*
X-5344120Y+6868250D01*
X-5328880Y+6931750D02*
X-5359360Y+6963500D01*
X-5267920Y+6963500D01*
X-5750000Y+7500000D02*
X-5745825Y+7520447D01*
X-5733008Y+7539355D01*
X-5711109Y+7556360D01*
X-5679688Y+7571094D01*
X-5638306Y+7583191D01*
X-5586524Y+7592285D01*
X-5523901Y+7598010D01*
X-5450000Y+7600000D01*
X-5750000Y+7500000D02*
X-5745825Y+7479553D01*
X-5733008Y+7460645D01*
X-5711109Y+7443640D01*
X-5679688Y+7428906D01*
X-5638306Y+7416809D01*
X-5586524Y+7407715D01*
X-5523901Y+7401990D01*
X-5450000Y+7400000D01*
X-5200000Y+7500000D02*
X-5204077Y+7520447D01*
X-5216211Y+7539355D01*
X-5236255Y+7556360D01*
X-5264062Y+7571094D01*
X-5299487Y+7583191D01*
X-5342383Y+7592285D01*
X-5392603Y+7598010D01*
X-5450000Y+7600000D01*
X-5200000Y+7500000D02*
X-5204077Y+7479553D01*
X-5216211Y+7460645D01*
X-5236255Y+7443640D01*
X-5264062Y+7428906D01*
X-5299487Y+7416809D01*
X-5342383Y+7407715D01*
X-5392603Y+7401990D01*
X-5450000Y+7400000D01*
X-5506750Y+7655880D02*
X-5522625Y+7640640D01*
X-5570250Y+7640640D01*
X-5602000Y+7671120D01*
X-5602000Y+7701600D01*
X-5570250Y+7732080D01*
X-5522625Y+7732080D01*
X-5506750Y+7716840D01*
X-5459125Y+7716840D02*
X-5443250Y+7732080D01*
X-5395625Y+7732080D01*
X-5379750Y+7716840D01*
X-5379750Y+7701600D01*
X-5395625Y+7686360D01*
X-5443250Y+7686360D01*
X-5459125Y+7671120D01*
X-5459125Y+7640640D01*
X-5379750Y+7640640D01*
X-8600000Y+5500000D02*
X-8595825Y+5520447D01*
X-8583008Y+5539355D01*
X-8561109Y+5556360D01*
X-8529688Y+5571094D01*
X-8488306Y+5583191D01*
X-8436524Y+5592285D01*
X-8373901Y+5598010D01*
X-8300000Y+5600000D01*
X-8600000Y+5500000D02*
X-8595825Y+5479553D01*
X-8583008Y+5460645D01*
X-8561109Y+5443640D01*
X-8529688Y+5428906D01*
X-8488306Y+5416809D01*
X-8436524Y+5407715D01*
X-8373901Y+5401990D01*
X-8300000Y+5400000D01*
X-8050000Y+5500000D02*
X-8054077Y+5520447D01*
X-8066211Y+5539355D01*
X-8086255Y+5556360D01*
X-8114062Y+5571094D01*
X-8149487Y+5583191D01*
X-8192383Y+5592285D01*
X-8242603Y+5598010D01*
X-8300000Y+5600000D01*
X-8050000Y+5500000D02*
X-8054077Y+5479553D01*
X-8066211Y+5460645D01*
X-8086255Y+5443640D01*
X-8114062Y+5428906D01*
X-8149487Y+5416809D01*
X-8192383Y+5407715D01*
X-8242603Y+5401990D01*
X-8300000Y+5400000D01*
X-8356750Y+5655880D02*
X-8372625Y+5640640D01*
X-8420250Y+5640640D01*
X-8452000Y+5671120D01*
X-8452000Y+5701600D01*
X-8420250Y+5732080D01*
X-8372625Y+5732080D01*
X-8356750Y+5716840D01*
X-8309125Y+5716840D02*
X-8293250Y+5732080D01*
X-8245625Y+5732080D01*
X-8229750Y+5716840D01*
X-8229750Y+5701600D01*
X-8245625Y+5686360D01*
X-8229750Y+5671120D01*
X-8229750Y+5655880D01*
X-8245625Y+5640640D01*
X-8293250Y+5640640D01*
X-8309125Y+5655880D01*
X-8277375Y+5686360D02*
X-8245625Y+5686360D01*
X-5119000Y+5500000D02*
X-5119827Y+5520483D01*
X-5126545Y+5561450D01*
X-5140563Y+5602417D01*
X-5163341Y+5643384D01*
X-5198141Y+5684229D01*
X-5239108Y+5715845D01*
X-5280075Y+5736392D01*
X-5321042Y+5748629D01*
X-5362009Y+5753762D01*
X-5373000Y+5754000D01*
X-5627000Y+5500000D02*
X-5626173Y+5520483D01*
X-5619455Y+5561450D01*
X-5605437Y+5602417D01*
X-5582659Y+5643384D01*
X-5547859Y+5684229D01*
X-5506892Y+5715845D01*
X-5465925Y+5736392D01*
X-5424958Y+5748629D01*
X-5383991Y+5753762D01*
X-5373000Y+5754000D01*
X-5627000Y+5500000D02*
X-5626173Y+5479517D01*
X-5619455Y+5438550D01*
X-5605437Y+5397583D01*
X-5582659Y+5356616D01*
X-5547859Y+5315771D01*
X-5506892Y+5284155D01*
X-5465925Y+5263608D01*
X-5424958Y+5251371D01*
X-5383991Y+5246238D01*
X-5373000Y+5246000D01*
X-5119000Y+5500000D02*
X-5119827Y+5479517D01*
X-5126545Y+5438550D01*
X-5140563Y+5397583D01*
X-5163341Y+5356616D01*
X-5198141Y+5315771D01*
X-5239108Y+5284155D01*
X-5280075Y+5263608D01*
X-5321042Y+5251371D01*
X-5362009Y+5246238D01*
X-5373000Y+5246000D01*
X-5563500Y+5627000D02*
X-5436500Y+5627000D01*
X-5500000Y+5690500D02*
X-5500000Y+5563500D01*
X-5405670Y+5809880D02*
X-5421545Y+5794640D01*
X-5469170Y+5794640D01*
X-5500920Y+5825120D01*
X-5500920Y+5855600D01*
X-5469170Y+5886080D01*
X-5421545Y+5886080D01*
X-5405670Y+5870840D01*
X-5278670Y+5825120D02*
X-5373920Y+5825120D01*
X-5310420Y+5886080D01*
X-5310420Y+5794640D01*
X-10750000Y+8623000D02*
X-10750000Y+8496000D01*
X-10813500Y+7988000D02*
X-10686500Y+7988000D01*
X-10686500Y+8496000D01*
X-10813500Y+8496000D01*
X-10813500Y+7988000D01*
X-10750000Y+7988000D02*
X-10750000Y+7861000D01*
X-10554420Y+8115000D02*
X-10645860Y+8115000D01*
X-10645860Y+8194375D01*
X-10630620Y+8210250D01*
X-10615380Y+8210250D01*
X-10600140Y+8194375D01*
X-10600140Y+8115000D01*
X-10600140Y+8194375D02*
X-10584900Y+8210250D01*
X-10554420Y+8210250D01*
X-10645860Y+8337250D02*
X-10645860Y+8257875D01*
X-10615380Y+8257875D01*
X-10615380Y+8321375D01*
X-10600140Y+8337250D01*
X-10569660Y+8337250D01*
X-10554420Y+8321375D01*
X-10554420Y+8273750D01*
X-10569660Y+8257875D01*
X-4139000Y+6619000D02*
X-2107000Y+6619000D01*
X-2107000Y+7127000D01*
X-4139000Y+7127000D01*
X-4139000Y+6619000D01*
X-4266000Y+6746000D02*
X-4139000Y+6746000D01*
X-4139000Y+7000000D01*
X-4266000Y+7000000D01*
X-4266000Y+6746000D01*
X-3377000Y+7167640D02*
X-3377000Y+7259080D01*
X-3297625Y+7259080D01*
X-3281750Y+7243840D01*
X-3281750Y+7228600D01*
X-3297625Y+7213360D01*
X-3377000Y+7213360D01*
X-3297625Y+7213360D02*
X-3281750Y+7198120D01*
X-3281750Y+7167640D01*
X-3250000Y+7259080D02*
X-3250000Y+7213360D01*
X-3202375Y+7167640D01*
X-3154750Y+7213360D01*
X-3154750Y+7259080D01*
X-3091250Y+7228600D02*
X-3059500Y+7259080D01*
X-3059500Y+7167640D01*
X-6741300Y+5212980D02*
X-5852300Y+5212980D01*
X-5852300Y+5974980D01*
X-6741300Y+5974980D01*
X-6741300Y+5212980D01*
X-6741300Y+5847980D02*
X-5852300Y+5847980D01*
X-6915925Y+6061340D02*
X-6836550Y+6061340D01*
X-6677800Y+6015620D02*
X-6677800Y+6107060D01*
X-6598425Y+6107060D01*
X-6582550Y+6091820D01*
X-6582550Y+6076580D01*
X-6598425Y+6061340D01*
X-6582550Y+6046100D01*
X-6582550Y+6030860D01*
X-6598425Y+6015620D01*
X-6677800Y+6015620D01*
X-6677800Y+6061340D02*
X-6598425Y+6061340D01*
X-6550800Y+6107060D02*
X-6550800Y+6030860D01*
X-6534925Y+6015620D01*
X-6471425Y+6015620D01*
X-6455550Y+6030860D01*
X-6455550Y+6107060D01*
X-6423800Y+6107060D02*
X-6328550Y+6107060D01*
X-6423800Y+6015620D01*
X-6328550Y+6015620D01*
X-6296800Y+6107060D02*
X-6201550Y+6107060D01*
X-6296800Y+6015620D01*
X-6201550Y+6015620D01*
X-6074550Y+6015620D02*
X-6169800Y+6015620D01*
X-6169800Y+6107060D01*
X-6074550Y+6107060D01*
X-6169800Y+6061340D02*
X-6106300Y+6061340D01*
X-6042800Y+6015620D02*
X-6042800Y+6107060D01*
X-5963425Y+6107060D01*
X-5947550Y+6091820D01*
X-5947550Y+6076580D01*
X-5963425Y+6061340D01*
X-6042800Y+6061340D01*
X-5963425Y+6061340D02*
X-5947550Y+6046100D01*
X-5947550Y+6015620D01*
X-5788800Y+6061340D02*
X-5693550Y+6061340D01*
X-5741175Y+6091820D02*
X-5741175Y+6030860D01*
X-12741300Y+7462980D02*
X-11852300Y+7462980D01*
X-11852300Y+8224980D01*
X-12741300Y+8224980D01*
X-12741300Y+7462980D01*
X-12741300Y+8097980D02*
X-11852300Y+8097980D01*
X-12423800Y+8296100D02*
X-12423800Y+8280860D01*
X-12407925Y+8265620D01*
X-12344425Y+8265620D01*
X-12328550Y+8280860D01*
X-12328550Y+8357060D01*
X-12201550Y+8357060D02*
X-12280925Y+8357060D01*
X-12280925Y+8326580D01*
X-12217425Y+8326580D01*
X-12201550Y+8311340D01*
X-12201550Y+8280860D01*
X-12217425Y+8265620D01*
X-12265050Y+8265620D01*
X-12280925Y+8280860D01*
D20*
X-10411900Y+10309500D02*
X-10412031Y+10312658D01*
X-10413097Y+10318976D01*
X-10415328Y+10325294D01*
X-10418973Y+10331612D01*
X-10424548Y+10337851D01*
X-10430866Y+10342447D01*
X-10437184Y+10345380D01*
X-10443502Y+10347042D01*
X-10449820Y+10347600D01*
X-10450000Y+10347600D01*
X-10488100Y+10309500D02*
X-10487969Y+10312658D01*
X-10486903Y+10318976D01*
X-10484672Y+10325294D01*
X-10481027Y+10331612D01*
X-10475452Y+10337851D01*
X-10469134Y+10342447D01*
X-10462816Y+10345380D01*
X-10456498Y+10347042D01*
X-10450180Y+10347600D01*
X-10450000Y+10347600D01*
X-10488100Y+10309500D02*
X-10487969Y+10306342D01*
X-10486903Y+10300024D01*
X-10484672Y+10293706D01*
X-10481027Y+10287388D01*
X-10475452Y+10281149D01*
X-10469134Y+10276553D01*
X-10462816Y+10273620D01*
X-10456498Y+10271958D01*
X-10450180Y+10271400D01*
X-10450000Y+10271400D01*
X-10411900Y+10309500D02*
X-10412031Y+10306342D01*
X-10413097Y+10300024D01*
X-10415328Y+10293706D01*
X-10418973Y+10287388D01*
X-10424548Y+10281149D01*
X-10430866Y+10276553D01*
X-10437184Y+10273620D01*
X-10443502Y+10271958D01*
X-10449820Y+10271400D01*
X-10450000Y+10271400D01*
D21*
X-10599580Y+10399340D02*
X-10472407Y+10399340D01*
X-9700420Y+10399340D02*
X-9700420Y+10600000D01*
X-9824809Y+10600000D01*
X-10599580Y+10600000D02*
X-10599580Y+10399340D01*
X-9827593Y+10399340D02*
X-9700420Y+10399340D01*
X-9875191Y+10600000D02*
X-10024809Y+10600000D01*
X-10027593Y+10399340D02*
X-9872407Y+10399340D01*
X-10075191Y+10600000D02*
X-10224809Y+10600000D01*
X-10227593Y+10399340D02*
X-10072407Y+10399340D01*
X-10275191Y+10600000D02*
X-10424809Y+10600000D01*
X-10475191Y+10600000D02*
X-10599580Y+10600000D01*
X-10427593Y+10399340D02*
X-10272407Y+10399340D01*
D71*
X-10277000Y+10668580D02*
X-10277000Y+10653340D01*
X-10261125Y+10638100D01*
X-10197625Y+10638100D01*
X-10181750Y+10653340D01*
X-10181750Y+10729540D01*
X-10054750Y+10714300D02*
X-10070625Y+10729540D01*
X-10118250Y+10729540D01*
X-10134125Y+10714300D01*
X-10134125Y+10653340D01*
X-10118250Y+10638100D01*
X-10070625Y+10638100D01*
X-10054750Y+10653340D01*
X-10054750Y+10668580D01*
X-10070625Y+10683820D01*
X-10134125Y+10683820D01*
D20*
X-9161900Y+6059500D02*
X-9162031Y+6062658D01*
X-9163097Y+6068976D01*
X-9165328Y+6075294D01*
X-9168973Y+6081612D01*
X-9174548Y+6087851D01*
X-9180866Y+6092447D01*
X-9187184Y+6095380D01*
X-9193502Y+6097042D01*
X-9199820Y+6097600D01*
X-9200000Y+6097600D01*
X-9238100Y+6059500D02*
X-9237969Y+6062658D01*
X-9236903Y+6068976D01*
X-9234672Y+6075294D01*
X-9231027Y+6081612D01*
X-9225452Y+6087851D01*
X-9219134Y+6092447D01*
X-9212816Y+6095380D01*
X-9206498Y+6097042D01*
X-9200180Y+6097600D01*
X-9200000Y+6097600D01*
X-9238100Y+6059500D02*
X-9237969Y+6056342D01*
X-9236903Y+6050024D01*
X-9234672Y+6043706D01*
X-9231027Y+6037388D01*
X-9225452Y+6031149D01*
X-9219134Y+6026553D01*
X-9212816Y+6023620D01*
X-9206498Y+6021958D01*
X-9200180Y+6021400D01*
X-9200000Y+6021400D01*
X-9161900Y+6059500D02*
X-9162031Y+6056342D01*
X-9163097Y+6050024D01*
X-9165328Y+6043706D01*
X-9168973Y+6037388D01*
X-9174548Y+6031149D01*
X-9180866Y+6026553D01*
X-9187184Y+6023620D01*
X-9193502Y+6021958D01*
X-9199820Y+6021400D01*
X-9200000Y+6021400D01*
D21*
X-9349580Y+6149340D02*
X-9222407Y+6149340D01*
X-8450420Y+6149340D02*
X-8450420Y+6350000D01*
X-8574809Y+6350000D01*
X-9349580Y+6350000D02*
X-9349580Y+6149340D01*
X-8577593Y+6149340D02*
X-8450420Y+6149340D01*
X-8625191Y+6350000D02*
X-8774809Y+6350000D01*
X-8777593Y+6149340D02*
X-8622407Y+6149340D01*
X-8825191Y+6350000D02*
X-8974809Y+6350000D01*
X-8977593Y+6149340D02*
X-8822407Y+6149340D01*
X-9025191Y+6350000D02*
X-9174809Y+6350000D01*
X-9225191Y+6350000D02*
X-9349580Y+6350000D01*
X-9177593Y+6149340D02*
X-9022407Y+6149340D01*
D71*
X-9027000Y+6418580D02*
X-9027000Y+6403340D01*
X-9011125Y+6388100D01*
X-8947625Y+6388100D01*
X-8931750Y+6403340D01*
X-8931750Y+6479540D01*
X-8884125Y+6479540D02*
X-8804750Y+6479540D01*
X-8804750Y+6464300D01*
X-8884125Y+6388100D01*
X-10887540Y+6212980D02*
X-9998540Y+6212980D01*
X-9998540Y+6974980D01*
X-10887540Y+6974980D01*
X-10887540Y+6212980D01*
X-10887540Y+6847980D02*
X-9998540Y+6847980D01*
X-10570040Y+7046100D02*
X-10570040Y+7030860D01*
X-10554165Y+7015620D01*
X-10490665Y+7015620D01*
X-10474790Y+7030860D01*
X-10474790Y+7107060D01*
X-10411290Y+7061340D02*
X-10427165Y+7076580D01*
X-10427165Y+7091820D01*
X-10411290Y+7107060D01*
X-10363665Y+7107060D01*
X-10347790Y+7091820D01*
X-10347790Y+7076580D01*
X-10363665Y+7061340D01*
X-10411290Y+7061340D01*
X-10427165Y+7046100D01*
X-10427165Y+7030860D01*
X-10411290Y+7015620D01*
X-10363665Y+7015620D01*
X-10347790Y+7030860D01*
X-10347790Y+7046100D01*
X-10363665Y+7061340D01*
D20*
X-7711900Y+7309500D02*
X-7712031Y+7312658D01*
X-7713097Y+7318976D01*
X-7715328Y+7325294D01*
X-7718973Y+7331612D01*
X-7724548Y+7337851D01*
X-7730866Y+7342447D01*
X-7737184Y+7345380D01*
X-7743502Y+7347042D01*
X-7749820Y+7347600D01*
X-7750000Y+7347600D01*
X-7788100Y+7309500D02*
X-7787969Y+7312658D01*
X-7786903Y+7318976D01*
X-7784672Y+7325294D01*
X-7781027Y+7331612D01*
X-7775452Y+7337851D01*
X-7769134Y+7342447D01*
X-7762816Y+7345380D01*
X-7756498Y+7347042D01*
X-7750180Y+7347600D01*
X-7750000Y+7347600D01*
X-7788100Y+7309500D02*
X-7787969Y+7306342D01*
X-7786903Y+7300024D01*
X-7784672Y+7293706D01*
X-7781027Y+7287388D01*
X-7775452Y+7281149D01*
X-7769134Y+7276553D01*
X-7762816Y+7273620D01*
X-7756498Y+7271958D01*
X-7750180Y+7271400D01*
X-7750000Y+7271400D01*
X-7711900Y+7309500D02*
X-7712031Y+7306342D01*
X-7713097Y+7300024D01*
X-7715328Y+7293706D01*
X-7718973Y+7287388D01*
X-7724548Y+7281149D01*
X-7730866Y+7276553D01*
X-7737184Y+7273620D01*
X-7743502Y+7271958D01*
X-7749820Y+7271400D01*
X-7750000Y+7271400D01*
D21*
X-7899860Y+7399340D02*
X-7772407Y+7399340D01*
X-7600140Y+7399340D02*
X-7600140Y+7600000D01*
X-7724809Y+7600000D01*
X-7899860Y+7600000D02*
X-7899860Y+7399340D01*
X-7775191Y+7600000D02*
X-7899860Y+7600000D01*
X-7727593Y+7399340D02*
X-7600140Y+7399340D01*
D71*
X-7877000Y+7668580D02*
X-7877000Y+7653340D01*
X-7861125Y+7638100D01*
X-7797625Y+7638100D01*
X-7781750Y+7653340D01*
X-7781750Y+7729540D01*
X-7654750Y+7699060D02*
X-7670625Y+7683820D01*
X-7718250Y+7683820D01*
X-7734125Y+7699060D01*
X-7734125Y+7714300D01*
X-7718250Y+7729540D01*
X-7670625Y+7729540D01*
X-7654750Y+7714300D01*
X-7654750Y+7653340D01*
X-7670625Y+7638100D01*
X-7718250Y+7638100D01*
D20*
X-11961900Y+10309500D02*
X-11962031Y+10312658D01*
X-11963097Y+10318976D01*
X-11965328Y+10325294D01*
X-11968973Y+10331612D01*
X-11974548Y+10337851D01*
X-11980866Y+10342447D01*
X-11987184Y+10345380D01*
X-11993502Y+10347042D01*
X-11999820Y+10347600D01*
X-12000000Y+10347600D01*
X-12038100Y+10309500D02*
X-12037969Y+10312658D01*
X-12036903Y+10318976D01*
X-12034672Y+10325294D01*
X-12031027Y+10331612D01*
X-12025452Y+10337851D01*
X-12019134Y+10342447D01*
X-12012816Y+10345380D01*
X-12006498Y+10347042D01*
X-12000180Y+10347600D01*
X-12000000Y+10347600D01*
X-12038100Y+10309500D02*
X-12037969Y+10306342D01*
X-12036903Y+10300024D01*
X-12034672Y+10293706D01*
X-12031027Y+10287388D01*
X-12025452Y+10281149D01*
X-12019134Y+10276553D01*
X-12012816Y+10273620D01*
X-12006498Y+10271958D01*
X-12000180Y+10271400D01*
X-12000000Y+10271400D01*
X-11961900Y+10309500D02*
X-11962031Y+10306342D01*
X-11963097Y+10300024D01*
X-11965328Y+10293706D01*
X-11968973Y+10287388D01*
X-11974548Y+10281149D01*
X-11980866Y+10276553D01*
X-11987184Y+10273620D01*
X-11993502Y+10271958D01*
X-11999820Y+10271400D01*
X-12000000Y+10271400D01*
D21*
X-12149860Y+10399340D02*
X-12022407Y+10399340D01*
X-11850140Y+10399340D02*
X-11850140Y+10600000D01*
X-11974809Y+10600000D01*
X-12149860Y+10600000D02*
X-12149860Y+10399340D01*
X-12025191Y+10600000D02*
X-12149860Y+10600000D01*
X-11977593Y+10399340D02*
X-11850140Y+10399340D01*
D71*
X-12190500Y+10668580D02*
X-12190500Y+10653340D01*
X-12174625Y+10638100D01*
X-12111125Y+10638100D01*
X-12095250Y+10653340D01*
X-12095250Y+10729540D01*
X-12031750Y+10699060D02*
X-12000000Y+10729540D01*
X-12000000Y+10638100D01*
X-11936500Y+10653340D02*
X-11936500Y+10714300D01*
X-11920625Y+10729540D01*
X-11857125Y+10729540D01*
X-11841250Y+10714300D01*
X-11841250Y+10653340D01*
X-11857125Y+10638100D01*
X-11920625Y+10638100D01*
X-11936500Y+10653340D01*
X-11936500Y+10638100D02*
X-11841250Y+10729540D01*
X-10137540Y+9712980D02*
X-9248540Y+9712980D01*
X-9248540Y+10474980D01*
X-10137540Y+10474980D01*
X-10137540Y+9712980D01*
X-10137540Y+10347980D02*
X-9248540Y+10347980D01*
X-9883540Y+10546100D02*
X-9883540Y+10530860D01*
X-9867665Y+10515620D01*
X-9804165Y+10515620D01*
X-9788290Y+10530860D01*
X-9788290Y+10607060D01*
X-9724790Y+10576580D02*
X-9693040Y+10607060D01*
X-9693040Y+10515620D01*
X-9597790Y+10576580D02*
X-9566040Y+10607060D01*
X-9566040Y+10515620D01*
X-11887540Y+8462980D02*
X-10998540Y+8462980D01*
X-10998540Y+9224980D01*
X-11887540Y+9224980D01*
X-11887540Y+8462980D01*
X-11887540Y+9097980D02*
X-10998540Y+9097980D01*
X-11633540Y+9296100D02*
X-11633540Y+9280860D01*
X-11617665Y+9265620D01*
X-11554165Y+9265620D01*
X-11538290Y+9280860D01*
X-11538290Y+9357060D01*
X-11474790Y+9326580D02*
X-11443040Y+9357060D01*
X-11443040Y+9265620D01*
X-11363665Y+9341820D02*
X-11347790Y+9357060D01*
X-11300165Y+9357060D01*
X-11284290Y+9341820D01*
X-11284290Y+9326580D01*
X-11300165Y+9311340D01*
X-11347790Y+9311340D01*
X-11363665Y+9296100D01*
X-11363665Y+9265620D01*
X-11284290Y+9265620D01*
X-10387540Y+9212980D02*
X-9498540Y+9212980D01*
X-9498540Y+9974980D01*
X-10387540Y+9974980D01*
X-10387540Y+9212980D01*
X-10387540Y+9847980D02*
X-9498540Y+9847980D01*
X-10133540Y+10046100D02*
X-10133540Y+10030860D01*
X-10117665Y+10015620D01*
X-10054165Y+10015620D01*
X-10038290Y+10030860D01*
X-10038290Y+10107060D01*
X-9974790Y+10076580D02*
X-9943040Y+10107060D01*
X-9943040Y+10015620D01*
X-9784290Y+10046100D02*
X-9879540Y+10046100D01*
X-9816040Y+10107060D01*
X-9816040Y+10015620D01*
X-10387540Y+8212980D02*
X-9498540Y+8212980D01*
X-9498540Y+8974980D01*
X-10387540Y+8974980D01*
X-10387540Y+8212980D01*
X-10387540Y+8847980D02*
X-9498540Y+8847980D01*
X-10133540Y+9046100D02*
X-10133540Y+9030860D01*
X-10117665Y+9015620D01*
X-10054165Y+9015620D01*
X-10038290Y+9030860D01*
X-10038290Y+9107060D01*
X-9974790Y+9076580D02*
X-9943040Y+9107060D01*
X-9943040Y+9015620D01*
X-9863665Y+9091820D02*
X-9847790Y+9107060D01*
X-9800165Y+9107060D01*
X-9784290Y+9091820D01*
X-9784290Y+9076580D01*
X-9800165Y+9061340D01*
X-9784290Y+9046100D01*
X-9784290Y+9030860D01*
X-9800165Y+9015620D01*
X-9847790Y+9015620D01*
X-9863665Y+9030860D01*
X-9831915Y+9061340D02*
X-9800165Y+9061340D01*
D20*
X-12461900Y+6809500D02*
X-12462031Y+6812658D01*
X-12463097Y+6818976D01*
X-12465328Y+6825294D01*
X-12468973Y+6831612D01*
X-12474548Y+6837851D01*
X-12480866Y+6842447D01*
X-12487184Y+6845380D01*
X-12493502Y+6847042D01*
X-12499820Y+6847600D01*
X-12500000Y+6847600D01*
X-12538100Y+6809500D02*
X-12537969Y+6812658D01*
X-12536903Y+6818976D01*
X-12534672Y+6825294D01*
X-12531027Y+6831612D01*
X-12525452Y+6837851D01*
X-12519134Y+6842447D01*
X-12512816Y+6845380D01*
X-12506498Y+6847042D01*
X-12500180Y+6847600D01*
X-12500000Y+6847600D01*
X-12538100Y+6809500D02*
X-12537969Y+6806342D01*
X-12536903Y+6800024D01*
X-12534672Y+6793706D01*
X-12531027Y+6787388D01*
X-12525452Y+6781149D01*
X-12519134Y+6776553D01*
X-12512816Y+6773620D01*
X-12506498Y+6771958D01*
X-12500180Y+6771400D01*
X-12500000Y+6771400D01*
X-12461900Y+6809500D02*
X-12462031Y+6806342D01*
X-12463097Y+6800024D01*
X-12465328Y+6793706D01*
X-12468973Y+6787388D01*
X-12474548Y+6781149D01*
X-12480866Y+6776553D01*
X-12487184Y+6773620D01*
X-12493502Y+6771958D01*
X-12499820Y+6771400D01*
X-12500000Y+6771400D01*
D21*
X-12649860Y+6899340D02*
X-12522407Y+6899340D01*
X-12350140Y+6899340D02*
X-12350140Y+7100000D01*
X-12474809Y+7100000D01*
X-12649860Y+7100000D02*
X-12649860Y+6899340D01*
X-12525191Y+7100000D02*
X-12649860Y+7100000D01*
X-12477593Y+6899340D02*
X-12350140Y+6899340D01*
D71*
X-12690500Y+7168580D02*
X-12690500Y+7153340D01*
X-12674625Y+7138100D01*
X-12611125Y+7138100D01*
X-12595250Y+7153340D01*
X-12595250Y+7229540D01*
X-12531750Y+7199060D02*
X-12500000Y+7229540D01*
X-12500000Y+7138100D01*
X-12341250Y+7229540D02*
X-12420625Y+7229540D01*
X-12420625Y+7199060D01*
X-12357125Y+7199060D01*
X-12341250Y+7183820D01*
X-12341250Y+7153340D01*
X-12357125Y+7138100D01*
X-12404750Y+7138100D01*
X-12420625Y+7153340D01*
D20*
X-10211900Y+7309500D02*
X-10212031Y+7312658D01*
X-10213097Y+7318976D01*
X-10215328Y+7325294D01*
X-10218973Y+7331612D01*
X-10224548Y+7337851D01*
X-10230866Y+7342447D01*
X-10237184Y+7345380D01*
X-10243502Y+7347042D01*
X-10249820Y+7347600D01*
X-10250000Y+7347600D01*
X-10288100Y+7309500D02*
X-10287969Y+7312658D01*
X-10286903Y+7318976D01*
X-10284672Y+7325294D01*
X-10281027Y+7331612D01*
X-10275452Y+7337851D01*
X-10269134Y+7342447D01*
X-10262816Y+7345380D01*
X-10256498Y+7347042D01*
X-10250180Y+7347600D01*
X-10250000Y+7347600D01*
X-10288100Y+7309500D02*
X-10287969Y+7306342D01*
X-10286903Y+7300024D01*
X-10284672Y+7293706D01*
X-10281027Y+7287388D01*
X-10275452Y+7281149D01*
X-10269134Y+7276553D01*
X-10262816Y+7273620D01*
X-10256498Y+7271958D01*
X-10250180Y+7271400D01*
X-10250000Y+7271400D01*
X-10211900Y+7309500D02*
X-10212031Y+7306342D01*
X-10213097Y+7300024D01*
X-10215328Y+7293706D01*
X-10218973Y+7287388D01*
X-10224548Y+7281149D01*
X-10230866Y+7276553D01*
X-10237184Y+7273620D01*
X-10243502Y+7271958D01*
X-10249820Y+7271400D01*
X-10250000Y+7271400D01*
D21*
X-10399860Y+7399340D02*
X-10272407Y+7399340D01*
X-10100140Y+7399340D02*
X-10100140Y+7600000D01*
X-10224809Y+7600000D01*
X-10399860Y+7600000D02*
X-10399860Y+7399340D01*
X-10275191Y+7600000D02*
X-10399860Y+7600000D01*
X-10227593Y+7399340D02*
X-10100140Y+7399340D01*
D71*
X-10440500Y+7668580D02*
X-10440500Y+7653340D01*
X-10424625Y+7638100D01*
X-10361125Y+7638100D01*
X-10345250Y+7653340D01*
X-10345250Y+7729540D01*
X-10281750Y+7699060D02*
X-10250000Y+7729540D01*
X-10250000Y+7638100D01*
X-10091250Y+7714300D02*
X-10107125Y+7729540D01*
X-10154750Y+7729540D01*
X-10170625Y+7714300D01*
X-10170625Y+7653340D01*
X-10154750Y+7638100D01*
X-10107125Y+7638100D01*
X-10091250Y+7653340D01*
X-10091250Y+7668580D01*
X-10107125Y+7683820D01*
X-10170625Y+7683820D01*
D20*
X-10461900Y+9059500D02*
X-10462031Y+9062658D01*
X-10463097Y+9068976D01*
X-10465328Y+9075294D01*
X-10468973Y+9081612D01*
X-10474548Y+9087851D01*
X-10480866Y+9092447D01*
X-10487184Y+9095380D01*
X-10493502Y+9097042D01*
X-10499820Y+9097600D01*
X-10500000Y+9097600D01*
X-10538100Y+9059500D02*
X-10537969Y+9062658D01*
X-10536903Y+9068976D01*
X-10534672Y+9075294D01*
X-10531027Y+9081612D01*
X-10525452Y+9087851D01*
X-10519134Y+9092447D01*
X-10512816Y+9095380D01*
X-10506498Y+9097042D01*
X-10500180Y+9097600D01*
X-10500000Y+9097600D01*
X-10538100Y+9059500D02*
X-10537969Y+9056342D01*
X-10536903Y+9050024D01*
X-10534672Y+9043706D01*
X-10531027Y+9037388D01*
X-10525452Y+9031149D01*
X-10519134Y+9026553D01*
X-10512816Y+9023620D01*
X-10506498Y+9021958D01*
X-10500180Y+9021400D01*
X-10500000Y+9021400D01*
X-10461900Y+9059500D02*
X-10462031Y+9056342D01*
X-10463097Y+9050024D01*
X-10465328Y+9043706D01*
X-10468973Y+9037388D01*
X-10474548Y+9031149D01*
X-10480866Y+9026553D01*
X-10487184Y+9023620D01*
X-10493502Y+9021958D01*
X-10499820Y+9021400D01*
X-10500000Y+9021400D01*
D21*
X-10649860Y+9149340D02*
X-10522407Y+9149340D01*
X-10350140Y+9149340D02*
X-10350140Y+9350000D01*
X-10474809Y+9350000D01*
X-10649860Y+9350000D02*
X-10649860Y+9149340D01*
X-10525191Y+9350000D02*
X-10649860Y+9350000D01*
X-10477593Y+9149340D02*
X-10350140Y+9149340D01*
D71*
X-10690500Y+9418580D02*
X-10690500Y+9403340D01*
X-10674625Y+9388100D01*
X-10611125Y+9388100D01*
X-10595250Y+9403340D01*
X-10595250Y+9479540D01*
X-10531750Y+9449060D02*
X-10500000Y+9479540D01*
X-10500000Y+9388100D01*
X-10420625Y+9479540D02*
X-10341250Y+9479540D01*
X-10341250Y+9464300D01*
X-10420625Y+9388100D01*
D20*
X-8211900Y+8309500D02*
X-8212031Y+8312658D01*
X-8213097Y+8318976D01*
X-8215328Y+8325294D01*
X-8218973Y+8331612D01*
X-8224548Y+8337851D01*
X-8230866Y+8342447D01*
X-8237184Y+8345380D01*
X-8243502Y+8347042D01*
X-8249820Y+8347600D01*
X-8250000Y+8347600D01*
X-8288100Y+8309500D02*
X-8287969Y+8312658D01*
X-8286903Y+8318976D01*
X-8284672Y+8325294D01*
X-8281027Y+8331612D01*
X-8275452Y+8337851D01*
X-8269134Y+8342447D01*
X-8262816Y+8345380D01*
X-8256498Y+8347042D01*
X-8250180Y+8347600D01*
X-8250000Y+8347600D01*
X-8288100Y+8309500D02*
X-8287969Y+8306342D01*
X-8286903Y+8300024D01*
X-8284672Y+8293706D01*
X-8281027Y+8287388D01*
X-8275452Y+8281149D01*
X-8269134Y+8276553D01*
X-8262816Y+8273620D01*
X-8256498Y+8271958D01*
X-8250180Y+8271400D01*
X-8250000Y+8271400D01*
X-8211900Y+8309500D02*
X-8212031Y+8306342D01*
X-8213097Y+8300024D01*
X-8215328Y+8293706D01*
X-8218973Y+8287388D01*
X-8224548Y+8281149D01*
X-8230866Y+8276553D01*
X-8237184Y+8273620D01*
X-8243502Y+8271958D01*
X-8249820Y+8271400D01*
X-8250000Y+8271400D01*
D21*
X-8399860Y+8399340D02*
X-8272407Y+8399340D01*
X-8100140Y+8399340D02*
X-8100140Y+8600000D01*
X-8224809Y+8600000D01*
X-8399860Y+8600000D02*
X-8399860Y+8399340D01*
X-8275191Y+8600000D02*
X-8399860Y+8600000D01*
X-8227593Y+8399340D02*
X-8100140Y+8399340D01*
D71*
X-8440500Y+8668580D02*
X-8440500Y+8653340D01*
X-8424625Y+8638100D01*
X-8361125Y+8638100D01*
X-8345250Y+8653340D01*
X-8345250Y+8729540D01*
X-8281750Y+8699060D02*
X-8250000Y+8729540D01*
X-8250000Y+8638100D01*
X-8154750Y+8683820D02*
X-8170625Y+8699060D01*
X-8170625Y+8714300D01*
X-8154750Y+8729540D01*
X-8107125Y+8729540D01*
X-8091250Y+8714300D01*
X-8091250Y+8699060D01*
X-8107125Y+8683820D01*
X-8154750Y+8683820D01*
X-8170625Y+8668580D01*
X-8170625Y+8653340D01*
X-8154750Y+8638100D01*
X-8107125Y+8638100D01*
X-8091250Y+8653340D01*
X-8091250Y+8668580D01*
X-8107125Y+8683820D01*
D20*
X-4211900Y+12309500D02*
X-4212031Y+12312658D01*
X-4213097Y+12318976D01*
X-4215328Y+12325294D01*
X-4218973Y+12331612D01*
X-4224548Y+12337851D01*
X-4230866Y+12342447D01*
X-4237184Y+12345380D01*
X-4243502Y+12347042D01*
X-4249820Y+12347600D01*
X-4250000Y+12347600D01*
X-4288100Y+12309500D02*
X-4287969Y+12312658D01*
X-4286903Y+12318976D01*
X-4284672Y+12325294D01*
X-4281027Y+12331612D01*
X-4275452Y+12337851D01*
X-4269134Y+12342447D01*
X-4262816Y+12345380D01*
X-4256498Y+12347042D01*
X-4250180Y+12347600D01*
X-4250000Y+12347600D01*
X-4288100Y+12309500D02*
X-4287969Y+12306342D01*
X-4286903Y+12300024D01*
X-4284672Y+12293706D01*
X-4281027Y+12287388D01*
X-4275452Y+12281149D01*
X-4269134Y+12276553D01*
X-4262816Y+12273620D01*
X-4256498Y+12271958D01*
X-4250180Y+12271400D01*
X-4250000Y+12271400D01*
X-4211900Y+12309500D02*
X-4212031Y+12306342D01*
X-4213097Y+12300024D01*
X-4215328Y+12293706D01*
X-4218973Y+12287388D01*
X-4224548Y+12281149D01*
X-4230866Y+12276553D01*
X-4237184Y+12273620D01*
X-4243502Y+12271958D01*
X-4249820Y+12271400D01*
X-4250000Y+12271400D01*
D21*
X-4399860Y+12399340D02*
X-4272407Y+12399340D01*
X-4100140Y+12399340D02*
X-4100140Y+12600000D01*
X-4224809Y+12600000D01*
X-4399860Y+12600000D02*
X-4399860Y+12399340D01*
X-4275191Y+12600000D02*
X-4399860Y+12600000D01*
X-4227593Y+12399340D02*
X-4100140Y+12399340D01*
D71*
X-4440500Y+12668580D02*
X-4440500Y+12653340D01*
X-4424625Y+12638100D01*
X-4361125Y+12638100D01*
X-4345250Y+12653340D01*
X-4345250Y+12729540D01*
X-4281750Y+12699060D02*
X-4250000Y+12729540D01*
X-4250000Y+12638100D01*
X-4091250Y+12699060D02*
X-4107125Y+12683820D01*
X-4154750Y+12683820D01*
X-4170625Y+12699060D01*
X-4170625Y+12714300D01*
X-4154750Y+12729540D01*
X-4107125Y+12729540D01*
X-4091250Y+12714300D01*
X-4091250Y+12653340D01*
X-4107125Y+12638100D01*
X-4154750Y+12638100D01*
D20*
X-7711900Y+9809500D02*
X-7712031Y+9812658D01*
X-7713097Y+9818976D01*
X-7715328Y+9825294D01*
X-7718973Y+9831612D01*
X-7724548Y+9837851D01*
X-7730866Y+9842447D01*
X-7737184Y+9845380D01*
X-7743502Y+9847042D01*
X-7749820Y+9847600D01*
X-7750000Y+9847600D01*
X-7788100Y+9809500D02*
X-7787969Y+9812658D01*
X-7786903Y+9818976D01*
X-7784672Y+9825294D01*
X-7781027Y+9831612D01*
X-7775452Y+9837851D01*
X-7769134Y+9842447D01*
X-7762816Y+9845380D01*
X-7756498Y+9847042D01*
X-7750180Y+9847600D01*
X-7750000Y+9847600D01*
X-7788100Y+9809500D02*
X-7787969Y+9806342D01*
X-7786903Y+9800024D01*
X-7784672Y+9793706D01*
X-7781027Y+9787388D01*
X-7775452Y+9781149D01*
X-7769134Y+9776553D01*
X-7762816Y+9773620D01*
X-7756498Y+9771958D01*
X-7750180Y+9771400D01*
X-7750000Y+9771400D01*
X-7711900Y+9809500D02*
X-7712031Y+9806342D01*
X-7713097Y+9800024D01*
X-7715328Y+9793706D01*
X-7718973Y+9787388D01*
X-7724548Y+9781149D01*
X-7730866Y+9776553D01*
X-7737184Y+9773620D01*
X-7743502Y+9771958D01*
X-7749820Y+9771400D01*
X-7750000Y+9771400D01*
D21*
X-7899860Y+9899340D02*
X-7772407Y+9899340D01*
X-7600140Y+9899340D02*
X-7600140Y+10100000D01*
X-7724809Y+10100000D01*
X-7899860Y+10100000D02*
X-7899860Y+9899340D01*
X-7775191Y+10100000D02*
X-7899860Y+10100000D01*
X-7727593Y+9899340D02*
X-7600140Y+9899340D01*
D71*
X-7940500Y+10168580D02*
X-7940500Y+10153340D01*
X-7924625Y+10138100D01*
X-7861125Y+10138100D01*
X-7845250Y+10153340D01*
X-7845250Y+10229540D01*
X-7797625Y+10214300D02*
X-7781750Y+10229540D01*
X-7734125Y+10229540D01*
X-7718250Y+10214300D01*
X-7718250Y+10199060D01*
X-7734125Y+10183820D01*
X-7781750Y+10183820D01*
X-7797625Y+10168580D01*
X-7797625Y+10138100D01*
X-7718250Y+10138100D01*
X-7686500Y+10153340D02*
X-7686500Y+10214300D01*
X-7670625Y+10229540D01*
X-7607125Y+10229540D01*
X-7591250Y+10214300D01*
X-7591250Y+10153340D01*
X-7607125Y+10138100D01*
X-7670625Y+10138100D01*
X-7686500Y+10153340D01*
X-7686500Y+10138100D02*
X-7591250Y+10229540D01*
M02*
