G04 PROTEUS GERBER X2 FILE*
%TF.GenerationSoftware,Labcenter,Proteus,8.11-SP0-Build30052*%
%TF.CreationDate,2023-05-22T14:03:23+00:00*%
%TF.FileFunction,AssemblyDrawing,Top*%
%TF.FilePolarity,Positive*%
%TF.Part,Single*%
%TF.SameCoordinates,{9aae922a-4e75-4b79-837c-5e4d9500d0df}*%
%FSLAX45Y45*%
%MOMM*%
G01*
%TA.AperFunction,Profile*%
%ADD70C,0.203200*%
%TA.AperFunction,Material*%
%ADD71C,0.203200*%
%ADD31C,1.219200*%
%ADD32C,0.106680*%
%ADD33C,0.812800*%
%ADD34C,0.194730*%
%ADD21C,0.152400*%
%ADD35C,0.558800*%
%ADD36C,0.244780*%
%ADD37C,0.711200*%
%ADD38C,0.110230*%
%ADD20C,0.508000*%
%ADD39C,0.507080*%
%ADD40C,0.172460*%
%ADD41C,0.490380*%
%ADD42C,0.462270*%
%ADD43C,0.302420*%
%ADD44C,0.140000*%
%ADD45C,0.609600*%
%ADD46C,0.136450*%
%ADD47C,0.050800*%
%ADD48C,0.184240*%
%ADD49C,0.355600*%
%ADD50C,0.075050*%
%ADD51C,0.115140*%
%TD.AperFunction*%
D70*
X-15250000Y+4500000D02*
X+500000Y+4500000D01*
X+500000Y+13250000D01*
X-15250000Y+13250000D01*
X-15250000Y+4500000D01*
D71*
X-15047180Y+6945900D02*
X-14264860Y+6945900D01*
X-14264860Y+7855220D01*
X-15047180Y+7855220D01*
X-15047180Y+6945900D01*
D31*
X-14750000Y+7603760D02*
X-14750000Y+7603760D01*
D32*
X-14980061Y+7244350D02*
X-14920053Y+7244350D01*
X-14800038Y+7276354D02*
X-14800038Y+7244350D01*
X-14764034Y+7212346D01*
X-14728029Y+7244350D01*
X-14728029Y+7276354D01*
X-14632017Y+7223014D02*
X-14644019Y+7212346D01*
X-14680023Y+7212346D01*
X-14704026Y+7233682D01*
X-14704026Y+7255018D01*
X-14680023Y+7276354D01*
X-14644019Y+7276354D01*
X-14632017Y+7265686D01*
X-14536005Y+7223014D02*
X-14548007Y+7212346D01*
X-14584011Y+7212346D01*
X-14608014Y+7233682D01*
X-14608014Y+7255018D01*
X-14584011Y+7276354D01*
X-14548007Y+7276354D01*
X-14536005Y+7265686D01*
X-14415990Y+7244350D02*
X-14343981Y+7244350D01*
X-14379986Y+7265686D02*
X-14379986Y+7223014D01*
D71*
X-14891160Y+11862840D02*
X-14108840Y+11862840D01*
X-14108840Y+12264160D01*
X-14891160Y+12264160D01*
X-14891160Y+11862840D01*
D33*
X-14754000Y+12000000D02*
X-14754000Y+12000000D01*
D34*
X-14586359Y+12121920D02*
X-14586359Y+12024553D01*
X-14564452Y+12005080D01*
X-14476823Y+12005080D01*
X-14454915Y+12024553D01*
X-14454915Y+12121920D01*
X-14367286Y+12082973D02*
X-14323471Y+12121920D01*
X-14323471Y+12005080D01*
D21*
X-13426480Y+10324980D02*
X-13876060Y+10324980D01*
X-13876060Y+9375020D01*
X-13426480Y+9375020D01*
X-13426480Y+10324980D01*
X-13876060Y+10324980D01*
X-13876060Y+9375020D01*
X-13426480Y+9375020D01*
X-13426480Y+10324980D01*
D35*
X-13750000Y+10150000D02*
X-13750000Y+10150000D01*
D36*
X-13626792Y+9524428D02*
X-13602314Y+9524428D01*
X-13577836Y+9551965D01*
X-13577836Y+9662116D01*
X-13602314Y+9689654D01*
X-13724704Y+9689654D01*
X-13700226Y+9772267D02*
X-13724704Y+9799805D01*
X-13724704Y+9882418D01*
X-13700226Y+9909956D01*
X-13675748Y+9909956D01*
X-13651270Y+9882418D01*
X-13626792Y+9909956D01*
X-13602314Y+9909956D01*
X-13577836Y+9882418D01*
X-13577836Y+9799805D01*
X-13602314Y+9772267D01*
X-13651270Y+9827343D02*
X-13651270Y+9882418D01*
D71*
X-13588900Y+10645100D02*
X-13411100Y+10645100D01*
X-13411100Y+11838900D01*
X-13588900Y+11838900D01*
X-13588900Y+10645100D01*
D37*
X-13500000Y+11750000D02*
X-13500000Y+11750000D01*
D38*
X-13466929Y+11080558D02*
X-13533070Y+11080558D01*
X-13533070Y+11142565D01*
X-13522047Y+11154967D01*
X-13511023Y+11154967D01*
X-13500000Y+11142565D01*
X-13500000Y+11080558D01*
X-13500000Y+11142565D02*
X-13488976Y+11154967D01*
X-13466929Y+11154967D01*
X-13511023Y+11204573D02*
X-13533070Y+11229376D01*
X-13466929Y+11229376D01*
D71*
X-13338900Y+10629100D02*
X-13161100Y+10629100D01*
X-13161100Y+11822900D01*
X-13338900Y+11822900D01*
X-13338900Y+10629100D01*
D37*
X-13250000Y+11734000D02*
X-13250000Y+11734000D01*
D38*
X-13216929Y+11064558D02*
X-13283070Y+11064558D01*
X-13283070Y+11126565D01*
X-13272047Y+11138967D01*
X-13261023Y+11138967D01*
X-13250000Y+11126565D01*
X-13250000Y+11064558D01*
X-13250000Y+11126565D02*
X-13238976Y+11138967D01*
X-13216929Y+11138967D01*
X-13272047Y+11176171D02*
X-13283070Y+11188573D01*
X-13283070Y+11225777D01*
X-13272047Y+11238179D01*
X-13261023Y+11238179D01*
X-13250000Y+11225777D01*
X-13250000Y+11188573D01*
X-13238976Y+11176171D01*
X-13216929Y+11176171D01*
X-13216929Y+11238179D01*
D71*
X-13088900Y+10645100D02*
X-12911100Y+10645100D01*
X-12911100Y+11838900D01*
X-13088900Y+11838900D01*
X-13088900Y+10645100D01*
D37*
X-13000000Y+11750000D02*
X-13000000Y+11750000D01*
D38*
X-12966929Y+11080558D02*
X-13033070Y+11080558D01*
X-13033070Y+11142565D01*
X-13022047Y+11154967D01*
X-13011023Y+11154967D01*
X-13000000Y+11142565D01*
X-13000000Y+11080558D01*
X-13000000Y+11142565D02*
X-12988976Y+11154967D01*
X-12966929Y+11154967D01*
X-13022047Y+11192171D02*
X-13033070Y+11204573D01*
X-13033070Y+11241777D01*
X-13022047Y+11254179D01*
X-13011023Y+11254179D01*
X-13000000Y+11241777D01*
X-12988976Y+11254179D01*
X-12977952Y+11254179D01*
X-12966929Y+11241777D01*
X-12966929Y+11204573D01*
X-12977952Y+11192171D01*
X-13000000Y+11216974D02*
X-13000000Y+11241777D01*
D71*
X-12838900Y+10645100D02*
X-12661100Y+10645100D01*
X-12661100Y+11838900D01*
X-12838900Y+11838900D01*
X-12838900Y+10645100D01*
D37*
X-12750000Y+11750000D02*
X-12750000Y+11750000D01*
D38*
X-12716929Y+11080558D02*
X-12783070Y+11080558D01*
X-12783070Y+11142565D01*
X-12772047Y+11154967D01*
X-12761023Y+11154967D01*
X-12750000Y+11142565D01*
X-12750000Y+11080558D01*
X-12750000Y+11142565D02*
X-12738976Y+11154967D01*
X-12716929Y+11154967D01*
X-12738976Y+11254179D02*
X-12738976Y+11179770D01*
X-12783070Y+11229376D01*
X-12716929Y+11229376D01*
D71*
X-9075500Y+8862840D02*
X-8186500Y+8862840D01*
X-8186500Y+10915160D01*
X-9075500Y+10915160D01*
X-9075500Y+8862840D01*
D20*
X-8250000Y+9000000D02*
X-8250000Y+9000000D01*
D39*
X-8783126Y+9513904D02*
X-8529583Y+9513904D01*
X-8478875Y+9570951D01*
X-8478875Y+9799139D01*
X-8529583Y+9856186D01*
X-8783126Y+9856186D01*
X-8732417Y+10027327D02*
X-8783126Y+10084374D01*
X-8783126Y+10255515D01*
X-8732417Y+10312562D01*
X-8681709Y+10312562D01*
X-8631000Y+10255515D01*
X-8580292Y+10312562D01*
X-8529583Y+10312562D01*
X-8478875Y+10255515D01*
X-8478875Y+10084374D01*
X-8529583Y+10027327D01*
X-8631000Y+10141421D02*
X-8631000Y+10255515D01*
D21*
X-6874600Y+10074980D02*
X-7126060Y+10074980D01*
X-7126060Y+9125020D01*
X-6874600Y+9125020D01*
X-6874600Y+10074980D01*
X-7126060Y+10074980D01*
X-7126060Y+9125020D01*
X-6874600Y+9125020D01*
X-6874600Y+10074980D01*
D35*
X-7000000Y+9900000D02*
X-7000000Y+9900000D01*
D40*
X-6983083Y+9339511D02*
X-6965836Y+9339511D01*
X-6948590Y+9358913D01*
X-6948590Y+9436522D01*
X-6965836Y+9455925D01*
X-7052069Y+9455925D01*
X-7017576Y+9533534D02*
X-7052069Y+9572339D01*
X-6948590Y+9572339D01*
D71*
X-5563500Y+8834840D02*
X-4674500Y+8834840D01*
X-4674500Y+10887160D01*
X-5563500Y+10887160D01*
X-5563500Y+8834840D01*
D20*
X-5500000Y+10750000D02*
X-5500000Y+10750000D01*
D39*
X-5271126Y+9323344D02*
X-5017583Y+9323344D01*
X-4966875Y+9380391D01*
X-4966875Y+9608579D01*
X-5017583Y+9665626D01*
X-5271126Y+9665626D01*
X-5271126Y+10122002D02*
X-5271126Y+9836767D01*
X-5169709Y+9836767D01*
X-5169709Y+10064955D01*
X-5119000Y+10122002D01*
X-5017583Y+10122002D01*
X-4966875Y+10064955D01*
X-4966875Y+9893814D01*
X-5017583Y+9836767D01*
D21*
X-6624980Y+9625400D02*
X-6624980Y+9373940D01*
X-5675020Y+9373940D01*
X-5675020Y+9625400D01*
X-6624980Y+9625400D01*
X-6624980Y+9373940D01*
X-5675020Y+9373940D01*
X-5675020Y+9625400D01*
X-6624980Y+9625400D01*
D35*
X-6450000Y+9500000D02*
X-6450000Y+9500000D01*
D40*
X-6199949Y+9482423D02*
X-6199949Y+9465176D01*
X-6180547Y+9447930D01*
X-6102938Y+9447930D01*
X-6083535Y+9465176D01*
X-6083535Y+9551409D01*
X-6025328Y+9534163D02*
X-6005926Y+9551409D01*
X-5947719Y+9551409D01*
X-5928316Y+9534163D01*
X-5928316Y+9516916D01*
X-5947719Y+9499670D01*
X-6005926Y+9499670D01*
X-6025328Y+9482423D01*
X-6025328Y+9447930D01*
X-5928316Y+9447930D01*
D71*
X-10137160Y+6686500D02*
X-8338840Y+6686500D01*
X-8338840Y+7575500D01*
X-10137160Y+7575500D01*
X-10137160Y+6686500D01*
D20*
X-10000000Y+6750000D02*
X-10000000Y+6750000D01*
D41*
X-9598070Y+7278117D02*
X-9598070Y+7032922D01*
X-9542902Y+6983883D01*
X-9322227Y+6983883D01*
X-9267058Y+7032922D01*
X-9267058Y+7278117D01*
X-8825708Y+7229078D02*
X-8880877Y+7278117D01*
X-9046383Y+7278117D01*
X-9101552Y+7229078D01*
X-9101552Y+7032922D01*
X-9046383Y+6983883D01*
X-8880877Y+6983883D01*
X-8825708Y+7032922D01*
X-8825708Y+7081961D01*
X-8880877Y+7131000D01*
X-9101552Y+7131000D01*
D71*
X-11563500Y+9084840D02*
X-10674500Y+9084840D01*
X-10674500Y+11137160D01*
X-11563500Y+11137160D01*
X-11563500Y+9084840D01*
D20*
X-11500000Y+11000000D02*
X-11500000Y+11000000D01*
D39*
X-11271126Y+9573344D02*
X-11017583Y+9573344D01*
X-10966875Y+9630391D01*
X-10966875Y+9858579D01*
X-11017583Y+9915626D01*
X-11271126Y+9915626D01*
X-11068292Y+10372002D02*
X-11068292Y+10029720D01*
X-11271126Y+10257908D01*
X-10966875Y+10257908D01*
D71*
X-1547180Y+8929140D02*
X-764860Y+8929140D01*
X-764860Y+12251460D01*
X-1547180Y+12251460D01*
X-1547180Y+8929140D01*
D31*
X-1250000Y+12000000D02*
X-1250000Y+12000000D01*
D42*
X-1109792Y+10018039D02*
X-1063564Y+10018039D01*
X-1017336Y+10070045D01*
X-1017336Y+10278070D01*
X-1063564Y+10330077D01*
X-1294704Y+10330077D01*
X-1109792Y+10746128D02*
X-1109792Y+10434090D01*
X-1294704Y+10642115D01*
X-1017336Y+10642115D01*
D71*
X-3338900Y+12411100D02*
X-2145100Y+12411100D01*
X-2145100Y+12588900D01*
X-3338900Y+12588900D01*
X-3338900Y+12411100D01*
D37*
X-3250000Y+12500000D02*
X-3250000Y+12500000D01*
D38*
X-2778982Y+12466929D02*
X-2778982Y+12533070D01*
X-2716975Y+12533070D01*
X-2704573Y+12522047D01*
X-2704573Y+12511023D01*
X-2716975Y+12500000D01*
X-2778982Y+12500000D01*
X-2716975Y+12500000D02*
X-2704573Y+12488976D01*
X-2704573Y+12466929D01*
X-2605361Y+12522047D02*
X-2617763Y+12533070D01*
X-2654967Y+12533070D01*
X-2667369Y+12522047D01*
X-2667369Y+12477952D01*
X-2654967Y+12466929D01*
X-2617763Y+12466929D01*
X-2605361Y+12477952D01*
X-2605361Y+12488976D01*
X-2617763Y+12500000D01*
X-2667369Y+12500000D01*
D71*
X-6887160Y+6686500D02*
X-5850840Y+6686500D01*
X-5850840Y+7575500D01*
X-6887160Y+7575500D01*
X-6887160Y+6686500D01*
D20*
X-6750000Y+6750000D02*
X-6750000Y+6750000D01*
D43*
X-6641186Y+7266179D02*
X-6641186Y+7114964D01*
X-6607163Y+7084721D01*
X-6471070Y+7084721D01*
X-6437047Y+7114964D01*
X-6437047Y+7266179D01*
X-6334977Y+7266179D02*
X-6164861Y+7266179D01*
X-6164861Y+7235936D01*
X-6334977Y+7084721D01*
D71*
X-5610160Y+6439840D02*
X-5389840Y+6439840D01*
X-5389840Y+7360160D01*
X-5610160Y+7360160D01*
X-5610160Y+6439840D01*
D37*
X-5500000Y+7250000D02*
X-5500000Y+7250000D01*
D44*
X-5472000Y+6795640D02*
X-5458000Y+6779890D01*
X-5458000Y+6732640D01*
X-5486000Y+6701140D01*
X-5514000Y+6701140D01*
X-5542000Y+6732640D01*
X-5542000Y+6779890D01*
X-5528000Y+6795640D01*
X-5514000Y+6858640D02*
X-5542000Y+6890140D01*
X-5458000Y+6890140D01*
D71*
X-5760160Y+7389840D02*
X-5189840Y+7389840D01*
X-5189840Y+7610160D01*
X-5760160Y+7610160D01*
X-5760160Y+7389840D01*
D45*
X-5650000Y+7500000D02*
X-5650000Y+7500000D01*
D46*
X-5435382Y+7472709D02*
X-5450733Y+7459064D01*
X-5496786Y+7459064D01*
X-5527487Y+7486355D01*
X-5527487Y+7513645D01*
X-5496786Y+7540936D01*
X-5450733Y+7540936D01*
X-5435382Y+7527291D01*
X-5389330Y+7527291D02*
X-5373979Y+7540936D01*
X-5327926Y+7540936D01*
X-5312575Y+7527291D01*
X-5312575Y+7513645D01*
X-5327926Y+7500000D01*
X-5373979Y+7500000D01*
X-5389330Y+7486355D01*
X-5389330Y+7459064D01*
X-5312575Y+7459064D01*
D71*
X-8610160Y+5389840D02*
X-8039840Y+5389840D01*
X-8039840Y+5610160D01*
X-8610160Y+5610160D01*
X-8610160Y+5389840D01*
D45*
X-8500000Y+5500000D02*
X-8500000Y+5500000D01*
D46*
X-8285382Y+5472709D02*
X-8300733Y+5459064D01*
X-8346786Y+5459064D01*
X-8377487Y+5486355D01*
X-8377487Y+5513645D01*
X-8346786Y+5540936D01*
X-8300733Y+5540936D01*
X-8285382Y+5527291D01*
X-8239330Y+5527291D02*
X-8223979Y+5540936D01*
X-8177926Y+5540936D01*
X-8162575Y+5527291D01*
X-8162575Y+5513645D01*
X-8177926Y+5500000D01*
X-8162575Y+5486355D01*
X-8162575Y+5472709D01*
X-8177926Y+5459064D01*
X-8223979Y+5459064D01*
X-8239330Y+5472709D01*
X-8208628Y+5500000D02*
X-8177926Y+5500000D01*
D47*
X-5089940Y+5500000D02*
X-5090858Y+5522814D01*
X-5098311Y+5568443D01*
X-5113858Y+5614072D01*
X-5139100Y+5659701D01*
X-5177642Y+5705231D01*
X-5223271Y+5740727D01*
X-5268900Y+5763847D01*
X-5314529Y+5777700D01*
X-5360158Y+5783646D01*
X-5373920Y+5783980D01*
X-5657900Y+5500000D02*
X-5656982Y+5522814D01*
X-5649529Y+5568443D01*
X-5633982Y+5614072D01*
X-5608740Y+5659701D01*
X-5570198Y+5705231D01*
X-5524569Y+5740727D01*
X-5478940Y+5763847D01*
X-5433311Y+5777700D01*
X-5387682Y+5783646D01*
X-5373920Y+5783980D01*
X-5657900Y+5500000D02*
X-5656982Y+5477186D01*
X-5649529Y+5431557D01*
X-5633982Y+5385928D01*
X-5608740Y+5340299D01*
X-5570198Y+5294769D01*
X-5524569Y+5259273D01*
X-5478940Y+5236153D01*
X-5433311Y+5222300D01*
X-5387682Y+5216354D01*
X-5373920Y+5216020D01*
X-5089940Y+5500000D02*
X-5090858Y+5477186D01*
X-5098311Y+5431557D01*
X-5113858Y+5385928D01*
X-5139100Y+5340299D01*
X-5177642Y+5294769D01*
X-5223271Y+5259273D01*
X-5268900Y+5236153D01*
X-5314529Y+5222300D01*
X-5360158Y+5216354D01*
X-5373920Y+5216020D01*
D33*
X-5246000Y+5500000D02*
X-5246000Y+5500000D01*
D48*
X-5436692Y+5458546D02*
X-5418268Y+5437819D01*
X-5418268Y+5375638D01*
X-5455116Y+5334184D01*
X-5491964Y+5334184D01*
X-5528812Y+5375638D01*
X-5528812Y+5437819D01*
X-5510388Y+5458546D01*
X-5455116Y+5624362D02*
X-5455116Y+5500000D01*
X-5528812Y+5582908D01*
X-5418268Y+5582908D01*
D71*
X-10838900Y+7645100D02*
X-10661100Y+7645100D01*
X-10661100Y+8838900D01*
X-10838900Y+8838900D01*
X-10838900Y+7645100D01*
D37*
X-10750000Y+8750000D02*
X-10750000Y+8750000D01*
D38*
X-10716929Y+8080558D02*
X-10783070Y+8080558D01*
X-10783070Y+8142565D01*
X-10772047Y+8154967D01*
X-10761023Y+8154967D01*
X-10750000Y+8142565D01*
X-10750000Y+8080558D01*
X-10750000Y+8142565D02*
X-10738976Y+8154967D01*
X-10716929Y+8154967D01*
X-10783070Y+8254179D02*
X-10783070Y+8192171D01*
X-10761023Y+8192171D01*
X-10761023Y+8241777D01*
X-10750000Y+8254179D01*
X-10727952Y+8254179D01*
X-10716929Y+8241777D01*
X-10716929Y+8204573D01*
X-10727952Y+8192171D01*
D71*
X-4276160Y+6608840D02*
X-2096840Y+6608840D01*
X-2096840Y+7137160D01*
X-4276160Y+7137160D01*
X-4276160Y+6608840D01*
D33*
X-2488000Y+6746000D02*
X-2488000Y+6746000D01*
D49*
X-3882460Y+6766320D02*
X-3882460Y+6979680D01*
X-3682435Y+6979680D01*
X-3642430Y+6944120D01*
X-3642430Y+6908560D01*
X-3682435Y+6873000D01*
X-3882460Y+6873000D01*
X-3682435Y+6873000D02*
X-3642430Y+6837440D01*
X-3642430Y+6766320D01*
X-3562420Y+6979680D02*
X-3562420Y+6873000D01*
X-3442405Y+6766320D01*
X-3322390Y+6873000D01*
X-3322390Y+6979680D01*
X-3162370Y+6908560D02*
X-3082360Y+6979680D01*
X-3082360Y+6766320D01*
D71*
X-6751460Y+5202820D02*
X-5842140Y+5202820D01*
X-5842140Y+5985140D01*
X-6751460Y+5985140D01*
X-6751460Y+5202820D01*
D31*
X-6500000Y+5500000D02*
X-6500000Y+5500000D01*
D50*
X-6140590Y+5264668D02*
X-6140590Y+5306888D01*
X-6118073Y+5391327D02*
X-6163107Y+5391327D01*
X-6163107Y+5433546D01*
X-6155601Y+5441990D01*
X-6148096Y+5441990D01*
X-6140590Y+5433546D01*
X-6133084Y+5441990D01*
X-6125579Y+5441990D01*
X-6118073Y+5433546D01*
X-6118073Y+5391327D01*
X-6140590Y+5391327D02*
X-6140590Y+5433546D01*
X-6163107Y+5458878D02*
X-6125579Y+5458878D01*
X-6118073Y+5467321D01*
X-6118073Y+5501097D01*
X-6125579Y+5509541D01*
X-6163107Y+5509541D01*
X-6163107Y+5526429D02*
X-6163107Y+5577092D01*
X-6118073Y+5526429D01*
X-6118073Y+5577092D01*
X-6163107Y+5593980D02*
X-6163107Y+5644643D01*
X-6118073Y+5593980D01*
X-6118073Y+5644643D01*
X-6118073Y+5712194D02*
X-6118073Y+5661531D01*
X-6163107Y+5661531D01*
X-6163107Y+5712194D01*
X-6140590Y+5661531D02*
X-6140590Y+5695306D01*
X-6118073Y+5729082D02*
X-6163107Y+5729082D01*
X-6163107Y+5771301D01*
X-6155601Y+5779745D01*
X-6148096Y+5779745D01*
X-6140590Y+5771301D01*
X-6140590Y+5729082D01*
X-6140590Y+5771301D02*
X-6133084Y+5779745D01*
X-6118073Y+5779745D01*
X-6140590Y+5864184D02*
X-6140590Y+5914847D01*
X-6155601Y+5889515D02*
X-6125579Y+5889515D01*
D71*
X-12751460Y+7452820D02*
X-11842140Y+7452820D01*
X-11842140Y+8235140D01*
X-12751460Y+8235140D01*
X-12751460Y+7452820D01*
D31*
X-12500000Y+7750000D02*
X-12500000Y+7750000D01*
D36*
X-12116104Y+7623610D02*
X-12091618Y+7623610D01*
X-12067133Y+7651156D01*
X-12067133Y+7761341D01*
X-12091618Y+7788887D01*
X-12214046Y+7788887D01*
X-12214046Y+8009257D02*
X-12214046Y+7871526D01*
X-12165075Y+7871526D01*
X-12165075Y+7981711D01*
X-12140590Y+8009257D01*
X-12091618Y+8009257D01*
X-12067133Y+7981711D01*
X-12067133Y+7899072D01*
X-12091618Y+7871526D01*
D21*
X-10624980Y+10625400D02*
X-10624980Y+10373940D01*
X-9675020Y+10373940D01*
X-9675020Y+10625400D01*
X-10624980Y+10625400D01*
X-10624980Y+10373940D01*
X-9675020Y+10373940D01*
X-9675020Y+10625400D01*
X-10624980Y+10625400D01*
D35*
X-10450000Y+10500000D02*
X-10450000Y+10500000D01*
D40*
X-10199949Y+10482423D02*
X-10199949Y+10465176D01*
X-10180547Y+10447930D01*
X-10102938Y+10447930D01*
X-10083535Y+10465176D01*
X-10083535Y+10551409D01*
X-9928316Y+10534163D02*
X-9947719Y+10551409D01*
X-10005926Y+10551409D01*
X-10025328Y+10534163D01*
X-10025328Y+10465176D01*
X-10005926Y+10447930D01*
X-9947719Y+10447930D01*
X-9928316Y+10465176D01*
X-9928316Y+10482423D01*
X-9947719Y+10499670D01*
X-10025328Y+10499670D01*
D21*
X-9374980Y+6375400D02*
X-9374980Y+6123940D01*
X-8425020Y+6123940D01*
X-8425020Y+6375400D01*
X-9374980Y+6375400D01*
X-9374980Y+6123940D01*
X-8425020Y+6123940D01*
X-8425020Y+6375400D01*
X-9374980Y+6375400D01*
D35*
X-9200000Y+6250000D02*
X-9200000Y+6250000D01*
D40*
X-8949949Y+6232423D02*
X-8949949Y+6215176D01*
X-8930547Y+6197930D01*
X-8852938Y+6197930D01*
X-8833535Y+6215176D01*
X-8833535Y+6301409D01*
X-8775328Y+6301409D02*
X-8678316Y+6301409D01*
X-8678316Y+6284163D01*
X-8775328Y+6197930D01*
D71*
X-10897700Y+6202820D02*
X-9988380Y+6202820D01*
X-9988380Y+6985140D01*
X-10897700Y+6985140D01*
X-10897700Y+6202820D01*
D31*
X-10646240Y+6500000D02*
X-10646240Y+6500000D01*
D36*
X-10262344Y+6373610D02*
X-10237858Y+6373610D01*
X-10213373Y+6401156D01*
X-10213373Y+6511341D01*
X-10237858Y+6538887D01*
X-10360286Y+6538887D01*
X-10286830Y+6649072D02*
X-10311315Y+6621526D01*
X-10335801Y+6621526D01*
X-10360286Y+6649072D01*
X-10360286Y+6731711D01*
X-10335801Y+6759257D01*
X-10311315Y+6759257D01*
X-10286830Y+6731711D01*
X-10286830Y+6649072D01*
X-10262344Y+6621526D01*
X-10237858Y+6621526D01*
X-10213373Y+6649072D01*
X-10213373Y+6731711D01*
X-10237858Y+6759257D01*
X-10262344Y+6759257D01*
X-10286830Y+6731711D01*
D21*
X-7925260Y+7625400D02*
X-7925260Y+7373940D01*
X-7574740Y+7373940D01*
X-7574740Y+7625400D01*
X-7925260Y+7625400D01*
X-7925260Y+7373940D01*
X-7574740Y+7373940D01*
X-7574740Y+7625400D01*
X-7925260Y+7625400D01*
D51*
X-7853631Y+7488155D02*
X-7853631Y+7476640D01*
X-7840678Y+7465126D01*
X-7788862Y+7465126D01*
X-7775908Y+7476640D01*
X-7775908Y+7534213D01*
X-7672277Y+7511184D02*
X-7685231Y+7499670D01*
X-7724093Y+7499670D01*
X-7737047Y+7511184D01*
X-7737047Y+7522699D01*
X-7724093Y+7534213D01*
X-7685231Y+7534213D01*
X-7672277Y+7522699D01*
X-7672277Y+7476640D01*
X-7685231Y+7465126D01*
X-7724093Y+7465126D01*
D21*
X-12175260Y+10625400D02*
X-12175260Y+10373940D01*
X-11824740Y+10373940D01*
X-11824740Y+10625400D01*
X-12175260Y+10625400D01*
X-12175260Y+10373940D01*
X-11824740Y+10373940D01*
X-11824740Y+10625400D01*
X-12175260Y+10625400D01*
D51*
X-12155446Y+10488155D02*
X-12155446Y+10476640D01*
X-12142493Y+10465126D01*
X-12090677Y+10465126D01*
X-12077723Y+10476640D01*
X-12077723Y+10534213D01*
X-12025908Y+10511184D02*
X-12000000Y+10534213D01*
X-12000000Y+10465126D01*
X-11948184Y+10476640D02*
X-11948184Y+10522699D01*
X-11935231Y+10534213D01*
X-11883415Y+10534213D01*
X-11870461Y+10522699D01*
X-11870461Y+10476640D01*
X-11883415Y+10465126D01*
X-11935231Y+10465126D01*
X-11948184Y+10476640D01*
X-11948184Y+10465126D02*
X-11870461Y+10534213D01*
D71*
X-10147700Y+9702820D02*
X-9238380Y+9702820D01*
X-9238380Y+10485140D01*
X-10147700Y+10485140D01*
X-10147700Y+9702820D01*
D31*
X-9896240Y+10000000D02*
X-9896240Y+10000000D01*
D36*
X-9512344Y+9763425D02*
X-9487858Y+9763425D01*
X-9463373Y+9790971D01*
X-9463373Y+9901156D01*
X-9487858Y+9928702D01*
X-9610286Y+9928702D01*
X-9561315Y+10038887D02*
X-9610286Y+10093980D01*
X-9463373Y+10093980D01*
X-9561315Y+10259257D02*
X-9610286Y+10314350D01*
X-9463373Y+10314350D01*
D71*
X-11897700Y+8452820D02*
X-10988380Y+8452820D01*
X-10988380Y+9235140D01*
X-11897700Y+9235140D01*
X-11897700Y+8452820D01*
D31*
X-11646240Y+8750000D02*
X-11646240Y+8750000D01*
D36*
X-11262344Y+8513425D02*
X-11237858Y+8513425D01*
X-11213373Y+8540971D01*
X-11213373Y+8651156D01*
X-11237858Y+8678702D01*
X-11360286Y+8678702D01*
X-11311315Y+8788887D02*
X-11360286Y+8843980D01*
X-11213373Y+8843980D01*
X-11335801Y+8981711D02*
X-11360286Y+9009257D01*
X-11360286Y+9091896D01*
X-11335801Y+9119442D01*
X-11311315Y+9119442D01*
X-11286830Y+9091896D01*
X-11286830Y+9009257D01*
X-11262344Y+8981711D01*
X-11213373Y+8981711D01*
X-11213373Y+9119442D01*
D71*
X-10397700Y+9202820D02*
X-9488380Y+9202820D01*
X-9488380Y+9985140D01*
X-10397700Y+9985140D01*
X-10397700Y+9202820D01*
D31*
X-10146240Y+9500000D02*
X-10146240Y+9500000D01*
D36*
X-9762344Y+9263425D02*
X-9737858Y+9263425D01*
X-9713373Y+9290971D01*
X-9713373Y+9401156D01*
X-9737858Y+9428702D01*
X-9860286Y+9428702D01*
X-9811315Y+9538887D02*
X-9860286Y+9593980D01*
X-9713373Y+9593980D01*
X-9762344Y+9869442D02*
X-9762344Y+9704165D01*
X-9860286Y+9814350D01*
X-9713373Y+9814350D01*
D71*
X-10397700Y+8202820D02*
X-9488380Y+8202820D01*
X-9488380Y+8985140D01*
X-10397700Y+8985140D01*
X-10397700Y+8202820D01*
D31*
X-10146240Y+8500000D02*
X-10146240Y+8500000D01*
D36*
X-9762344Y+8263425D02*
X-9737858Y+8263425D01*
X-9713373Y+8290971D01*
X-9713373Y+8401156D01*
X-9737858Y+8428702D01*
X-9860286Y+8428702D01*
X-9811315Y+8538887D02*
X-9860286Y+8593980D01*
X-9713373Y+8593980D01*
X-9835801Y+8731711D02*
X-9860286Y+8759257D01*
X-9860286Y+8841896D01*
X-9835801Y+8869442D01*
X-9811315Y+8869442D01*
X-9786830Y+8841896D01*
X-9762344Y+8869442D01*
X-9737858Y+8869442D01*
X-9713373Y+8841896D01*
X-9713373Y+8759257D01*
X-9737858Y+8731711D01*
X-9786830Y+8786803D02*
X-9786830Y+8841896D01*
D21*
X-12675260Y+7125400D02*
X-12675260Y+6873940D01*
X-12324740Y+6873940D01*
X-12324740Y+7125400D01*
X-12675260Y+7125400D01*
X-12675260Y+6873940D01*
X-12324740Y+6873940D01*
X-12324740Y+7125400D01*
X-12675260Y+7125400D01*
D51*
X-12655446Y+6988155D02*
X-12655446Y+6976640D01*
X-12642493Y+6965126D01*
X-12590677Y+6965126D01*
X-12577723Y+6976640D01*
X-12577723Y+7034213D01*
X-12525908Y+7011184D02*
X-12500000Y+7034213D01*
X-12500000Y+6965126D01*
X-12370461Y+7034213D02*
X-12435231Y+7034213D01*
X-12435231Y+7011184D01*
X-12383415Y+7011184D01*
X-12370461Y+6999670D01*
X-12370461Y+6976640D01*
X-12383415Y+6965126D01*
X-12422277Y+6965126D01*
X-12435231Y+6976640D01*
D21*
X-10425260Y+7625400D02*
X-10425260Y+7373940D01*
X-10074740Y+7373940D01*
X-10074740Y+7625400D01*
X-10425260Y+7625400D01*
X-10425260Y+7373940D01*
X-10074740Y+7373940D01*
X-10074740Y+7625400D01*
X-10425260Y+7625400D01*
D51*
X-10405446Y+7488155D02*
X-10405446Y+7476640D01*
X-10392493Y+7465126D01*
X-10340677Y+7465126D01*
X-10327723Y+7476640D01*
X-10327723Y+7534213D01*
X-10275908Y+7511184D02*
X-10250000Y+7534213D01*
X-10250000Y+7465126D01*
X-10120461Y+7522699D02*
X-10133415Y+7534213D01*
X-10172277Y+7534213D01*
X-10185231Y+7522699D01*
X-10185231Y+7476640D01*
X-10172277Y+7465126D01*
X-10133415Y+7465126D01*
X-10120461Y+7476640D01*
X-10120461Y+7488155D01*
X-10133415Y+7499670D01*
X-10185231Y+7499670D01*
D21*
X-10675260Y+9375400D02*
X-10675260Y+9123940D01*
X-10324740Y+9123940D01*
X-10324740Y+9375400D01*
X-10675260Y+9375400D01*
X-10675260Y+9123940D01*
X-10324740Y+9123940D01*
X-10324740Y+9375400D01*
X-10675260Y+9375400D01*
D51*
X-10655446Y+9238155D02*
X-10655446Y+9226640D01*
X-10642493Y+9215126D01*
X-10590677Y+9215126D01*
X-10577723Y+9226640D01*
X-10577723Y+9284213D01*
X-10525908Y+9261184D02*
X-10500000Y+9284213D01*
X-10500000Y+9215126D01*
X-10435231Y+9284213D02*
X-10370461Y+9284213D01*
X-10370461Y+9272699D01*
X-10435231Y+9215126D01*
D21*
X-8425260Y+8625400D02*
X-8425260Y+8373940D01*
X-8074740Y+8373940D01*
X-8074740Y+8625400D01*
X-8425260Y+8625400D01*
X-8425260Y+8373940D01*
X-8074740Y+8373940D01*
X-8074740Y+8625400D01*
X-8425260Y+8625400D01*
D51*
X-8405446Y+8488155D02*
X-8405446Y+8476640D01*
X-8392493Y+8465126D01*
X-8340677Y+8465126D01*
X-8327723Y+8476640D01*
X-8327723Y+8534213D01*
X-8275908Y+8511184D02*
X-8250000Y+8534213D01*
X-8250000Y+8465126D01*
X-8172277Y+8499670D02*
X-8185231Y+8511184D01*
X-8185231Y+8522699D01*
X-8172277Y+8534213D01*
X-8133415Y+8534213D01*
X-8120461Y+8522699D01*
X-8120461Y+8511184D01*
X-8133415Y+8499670D01*
X-8172277Y+8499670D01*
X-8185231Y+8488155D01*
X-8185231Y+8476640D01*
X-8172277Y+8465126D01*
X-8133415Y+8465126D01*
X-8120461Y+8476640D01*
X-8120461Y+8488155D01*
X-8133415Y+8499670D01*
D21*
X-4425260Y+12625400D02*
X-4425260Y+12373940D01*
X-4074740Y+12373940D01*
X-4074740Y+12625400D01*
X-4425260Y+12625400D01*
X-4425260Y+12373940D01*
X-4074740Y+12373940D01*
X-4074740Y+12625400D01*
X-4425260Y+12625400D01*
D51*
X-4405446Y+12488155D02*
X-4405446Y+12476640D01*
X-4392493Y+12465126D01*
X-4340677Y+12465126D01*
X-4327723Y+12476640D01*
X-4327723Y+12534213D01*
X-4275908Y+12511184D02*
X-4250000Y+12534213D01*
X-4250000Y+12465126D01*
X-4120461Y+12511184D02*
X-4133415Y+12499670D01*
X-4172277Y+12499670D01*
X-4185231Y+12511184D01*
X-4185231Y+12522699D01*
X-4172277Y+12534213D01*
X-4133415Y+12534213D01*
X-4120461Y+12522699D01*
X-4120461Y+12476640D01*
X-4133415Y+12465126D01*
X-4172277Y+12465126D01*
D21*
X-7925260Y+10125400D02*
X-7925260Y+9873940D01*
X-7574740Y+9873940D01*
X-7574740Y+10125400D01*
X-7925260Y+10125400D01*
X-7925260Y+9873940D01*
X-7574740Y+9873940D01*
X-7574740Y+10125400D01*
X-7925260Y+10125400D01*
D51*
X-7905446Y+9988155D02*
X-7905446Y+9976640D01*
X-7892493Y+9965126D01*
X-7840677Y+9965126D01*
X-7827723Y+9976640D01*
X-7827723Y+10034213D01*
X-7788862Y+10022699D02*
X-7775908Y+10034213D01*
X-7737046Y+10034213D01*
X-7724092Y+10022699D01*
X-7724092Y+10011184D01*
X-7737046Y+9999670D01*
X-7775908Y+9999670D01*
X-7788862Y+9988155D01*
X-7788862Y+9965126D01*
X-7724092Y+9965126D01*
X-7698184Y+9976640D02*
X-7698184Y+10022699D01*
X-7685231Y+10034213D01*
X-7633415Y+10034213D01*
X-7620461Y+10022699D01*
X-7620461Y+9976640D01*
X-7633415Y+9965126D01*
X-7685231Y+9965126D01*
X-7698184Y+9976640D01*
X-7698184Y+9965126D02*
X-7620461Y+10034213D01*
M02*
